<?xml version="1.0" encoding="utf-8"?>
<!-- Generator: Adobe Illustrator 26.3.1, SVG Export Plug-In . SVG Version: 6.00 Build 0)  -->
<svg version="1.1" id="Ebene_1" xmlns="http://www.w3.org/2000/svg" xmlns:xlink="http://www.w3.org/1999/xlink" x="0px" y="0px"
	 viewBox="0 0 2409.45 1105.51" style="enable-background:new 0 0 2409.45 1105.51;" xml:space="preserve">
<g>
	<path d="M1263.44,431.44c-0.77,3.86-1.25,7.53-1.44,11c-0.21,3.47-0.68,7.15-1.45,11c-0.39,4.63,0.09,9.27,1.45,13.9
		c1.35,4.63,3.47,8.87,6.37,12.73c2.89,3.86,6.36,6.94,10.41,9.26c4.05,2.32,8.59,3.48,13.62,3.48c8.1,0,16.29-3.28,24.59-9.85
		c8.29-6.55,16.3-14.95,24.03-25.17c6.25-8.3,12.26-17.47,18.01-27.42c1.49,9.5,4.13,18.18,8.04,25.96
		c5.41,10.82,13.6,19.59,24.59,26.35c11.01,6.75,25.18,10.13,42.56,10.13c16.2,0,31.26-6.08,45.14-18.24
		c13.9-12.15,26.43-27,37.62-44.57c5.28-8.28,10.21-16.76,14.84-25.43c2.09-2.11,4.13-4.21,6.37-6.31
		c13.52-12.77,28.85-25.33,48.07-35c17.26-9.37,35-12.04,49.68-13.38c14.8-0.81,27.26,0.46,37.61,3.78c0.39,0.17,6.2,2.65,6.59,2.81
		c2.42,1.71,4.97,3.17,7.08,4.76c1.99,1.7,4.04,3.1,5.7,4.41c3.04,2.79,5.62,4.39,6.9,3.7c1.28-0.69,0.86-3.6-0.94-8.05
		c-1.01-2.13-2.67-4.39-4.5-6.96c-1.93-2.47-4.55-4.71-7.22-7.18c-1.21-0.94-6.35-4.94-7.15-5.56c-10.7-7.59-25.86-14.64-44.7-17.33
		c-9.4-1.34-19.63-1.47-30.5-0.09c-10.72,1.39-22.64,4.61-33.57,10.65c-21.87,11.06-39.6,29.71-51.52,47.49
		c-12.29,17.88-19.6,35.33-25.58,48.19c-0.29,0.64-0.59,1.33-0.88,2.01c-5.12,6.43-10.44,12.25-15.95,17.46
		c-10.99,10.42-22.28,15.63-33.85,15.63c-13.52,0-22.86-5.41-28.08-16.2c-5.21-10.8-7.45-23.92-6.66-39.36
		c11.18,0,23.05-2.4,35.6-7.23c12.53-4.82,24.21-11.58,35.01-20.26c10.81-8.68,19.69-18.81,26.63-30.38
		c6.94-11.58,10.43-24.12,10.43-37.62c0-6.17-2.14-12.55-6.38-19.11c-4.25-6.55-9.45-12.53-15.62-17.95
		c-6.18-5.39-12.84-9.74-19.97-13.02c-7.14-3.27-13.41-4.92-18.81-4.92c-10.43,0-20.56,3.38-30.38,10.13
		c-9.85,6.75-19.02,15.53-27.51,26.33c-8.48,10.8-15.82,23.25-21.98,37.34c-6.18,14.08-10.91,28.36-14.19,42.84
		c-1.67,7.36-2.8,14.67-3.43,21.94c-5.47,10.74-11.29,21.23-17.69,31.31c-7.73,12.15-16.02,22.68-24.88,31.55
		c-2.31,2.32-4.45,3.27-6.37,2.9c-1.95-0.39-2.52-2.7-1.74-6.95c1.93-10.41,4.33-22.28,7.24-35.6c2.89-13.31,6.26-27.1,10.13-41.39
		c3.84-14.27,8.01-28.55,12.44-42.84c4.44-14.26,9.17-27.77,14.19-40.51c0.77-3.09,2.11-6.26,4.05-9.55
		c1.92-3.27,1.35-6.08-1.74-8.39c-1.93-1.54-4.33-3.27-7.24-5.21c-2.89-1.92-6.08-3.75-9.54-5.5c-3.47-1.73-7.05-3.19-10.71-4.34
		c-3.68-1.15-6.86-1.73-9.54-1.73c-3.47,0-6.38,2.51-8.69,7.52c-10.05,23.16-18.92,49.11-26.63,77.86
		C1273.66,375.98,1267.68,404.05,1263.44,431.44z M1415.39,366.62c2.89-10.42,6.45-20.26,10.71-29.53
		c4.24-9.26,8.96-17.65,14.18-25.17c5.21-7.53,10.7-13.41,16.5-17.66c4.24-3.48,8.38-4.34,12.43-2.61c4.05,1.73,6.08,5.7,6.08,11.86
		c0,11.58-1.93,22.97-5.78,34.15c-3.86,11.19-8.99,21.13-15.35,29.82c-6.37,8.68-13.52,15.71-21.42,21.12
		c-7.91,5.42-15.73,8.1-23.44,8.1C1410.46,387.07,1412.49,377.04,1415.39,366.62z"/>
	<path d="M1348.53,245.65c3.49,0,7.82-2.61,13.03-7.82c5.21-5.2,10.5-11.29,15.92-18.23c5.39-6.95,10.5-14.09,15.33-21.42
		c4.82-7.33,8.59-13.11,11.29-17.37c6.56-10.42,5.8-18.32-2.31-23.72c-5.42-3.86-11.68-7.33-18.81-10.43
		c-7.14-3.08-12.26-4.82-15.34-5.21c-3.86,0-8.49,5.42-13.9,16.21c-1.93,3.48-4.82,10.04-8.68,19.68
		c-3.86,9.65-6.94,19.59-9.27,29.8c-2.31,10.24-2.79,19.31-1.44,27.21C1335.7,242.27,1340.43,246.03,1348.53,245.65z"/>
	<path d="M2277.79,801.74c-23.09-25.04-53.91,21.46-75.44,29.54c-38.24,14.35-77.24,13.4-116.3,2.45
		c-77.74-21.78-163.91-77.11-184.26-160.54c68.73-13.91,134.31-51.01,180.19-104.32c41.5-48.22,72.35-147.84-5.87-179.82
		c-90.18-36.88-168.68-5.11-232.94,41.63c-70.45,51.24-177.77,165.53-158.95,175.18c11.92,6.1,118.86-93.08,133.1-104.84
		c55.83-46.08,107.1-89.59,181.45-94.61c55.67-3.76,77.05,53.25,54.3,103c-26.55,58.09-84.54,109.05-144.67,129.71
		c10.99-23.89,22.74-47.41,33.31-71.5c10.23-23.37-9.56-68.02-40.89-50.52c-4.23,2.37-7.59,25.23-10.09,30.93
		c-7.7,18.09-17.96,35.14-26.2,52.99c-17.59-10.78-40.1-9.2-54.65,6.11c-23.04,24.45-2.32,55.71,23.79,66.38
		c-2.23,6.09-4.44,13.31-6.54,21.27c-6.07,11.45-13.41,24.41-18.1,35c-7.53,16.98-20.74,35.71-29.74,51.21
		c-7.57,13-18.59,24.04-34.45,35.62c-12.23,8.92-22.28,15.62-33.86,15.62c-13.52,0-22.86-5.4-28.07-16.2
		c-5.22-10.8-7.45-23.92-6.66-39.36c11.19,0,23.05-2.4,35.59-7.23c12.53-4.82,24.21-11.58,35.02-20.26
		c10.8-8.69,19.69-18.81,26.63-30.38c6.96-11.58,10.42-24.11,10.42-37.62c0-6.17-2.13-12.54-6.37-19.11
		c-4.26-6.55-9.45-12.53-15.62-17.95c-6.19-5.39-12.83-9.73-19.97-13.02c-7.14-3.27-13.41-4.92-18.81-4.92
		c-10.42,0-20.55,3.39-30.38,10.14c-9.84,6.75-19.02,15.53-27.49,26.33c-8.49,10.8-15.82,23.25-21.99,37.33
		c-6.19,14.09-10.92,28.36-14.18,42.84c-1.72,7.57-2.86,15.1-3.47,22.57c-4.83,9.4-9.88,18.7-15.35,27.78
		c-7.33,12.15-15.25,22.68-23.74,31.55c-4.24,4.25-7.14,5.89-8.68,4.91c-1.54-0.95-1.93-4.72-1.15-11.28
		c2.68-20.45,6.85-44.86,12.44-73.22c5.59-28.36,11.97-56.92,19.11-85.67c7.13-28.73,14.65-55.45,22.56-80.16
		c7.91-24.69,15.53-43.59,22.88-56.72c1.15-1.93,2.31-3.56,3.47-4.92c1.15-1.34,2.5-2.98,4.05-4.92c0.77-0.76,1.15-1.73,1.15-2.88
		c0-2.32-2.12-4.82-6.36-7.53c-4.25-2.7-9.17-5.2-14.76-7.53c-5.61-2.32-11.2-4.35-16.79-6.08c-5.61-1.72-9.75-2.6-12.45-2.6
		c-3.86,0-8.3,5.21-13.32,15.63c-5,10.41-10.32,24.31-15.9,41.67c-5.61,17.36-11.19,37.15-16.79,59.33
		c-5.6,22.19-10.7,44.96-15.34,68.3c-1.71,8.63-3.29,17.21-4.87,25.79c-6.43,14.16-13.59,27.34-21.68,39.27
		c-13.52,19.9-28,37.79-43.42,53.62l1.15-5.77c4.25-20.12,8.98-41.52,14.19-64.23c5.2-22.69,11.09-45.37,17.65-68.07
		c1.16-5.56,2.89-10.92,5.21-16.06c1.17-2.13,1.92-4.37,2.31-6.74c0.38-2.35-0.39-4.39-2.31-6.1c-3.86-3.41-9.65-7.38-17.37-11.89
		c-7.73-4.49-14.47-6.74-20.26-6.74c-3.48,0-6.18,2.78-8.1,8.34c-0.78,1.29-1.36,2.78-1.74,4.49c-0.39,1.72-0.78,3-1.16,3.86
		c-5.01-2.57-9.83-5.24-14.46-8.02c-4.63-2.78-9.46-5.25-14.47-7.38c-5.41-2.14-10.71-3.43-15.92-3.86
		c-5.21-0.42-10.13,0.87-14.76,3.86c-14.27,8.57-26.91,21.29-37.9,38.2c-3.85,5.92-7.38,12.11-10.79,18.44
		c-1.58,0.79-2.92,2.14-3.91,4.36c-6.58,17.98-14.96,34.79-25.19,50.42c-10.22,15.62-21.7,29.65-34.43,42.05
		c5.41-14.55,9.55-29.54,12.44-44.95c2.9-15.42,4.35-30.4,4.35-44.96c0-7.26-1.74-14.33-5.21-21.18
		c-3.47-6.85-8.2-12.85-14.18-17.99c-6-5.13-13.03-9.32-21.13-12.52c-8.1-3.21-16.6-4.83-25.47-4.83
		c-5.77-4.71-12.43-7.91-19.95-9.63c-7.54-1.7-14.57-0.86-21.13,2.58c-12.35,7.28-23.35,17.45-32.99,30.5
		c-9.66,13.07-17.76,27.72-24.32,43.99c-6.56,16.28-11.67,33.2-15.33,50.73c-0.23,1.13-0.4,2.21-0.62,3.33
		c-3.03,8-6.2,16.04-9.67,24.19c-5.6,13.11-11.87,25.76-18.81,37.91c-6.96,12.15-14.68,22.68-23.16,31.54
		c-3.09,2.32-5.21,3.48-6.36,3.48c-4.63,0-8.79-3.67-12.45-11c-3.67-7.32-6.75-15.82-9.26-25.47s-4.44-18.81-5.78-27.5
		c-1.36-8.68-2.03-14.55-2.03-17.65c12.34-6.95,23.63-15.33,33.85-25.18c10.22-9.85,19.19-20.16,26.91-30.96
		c4.24-6.17,6.85-12.25,7.82-18.24c0.96-5.98-0.09-12.24-3.19-18.81c-2.31-5.4-5.31-10.42-8.97-15.05c-3.68-4.63-7.82-8.29-12.45-11
		c-5.78-3.85-11.86-4.13-18.23-0.87c-6.36,3.29-12.25,7.63-17.65,13.04c-14.68,14.66-27.21,31.54-37.62,50.64
		c-10.43,19.1-20.08,37.92-28.95,56.43c3.86-20.83,8.4-42.44,13.61-64.82c5.2-22.37,10.71-43.9,16.49-64.55
		c5.8-20.63,11.67-39.54,17.67-56.72c5.97-17.16,11.86-30.77,17.65-40.81c0.77-1.93,1.74-3.56,2.89-4.92
		c1.16-1.34,2.51-2.98,4.05-4.92c0.77-0.76,1.16-1.73,1.16-2.88c0-2.32-2.12-4.82-6.36-7.53c-2.56-1.62-5.4-3.15-8.38-4.64
		c21.37-8.07,41.75-17.93,61.12-29.65c25.28-15.29,48.49-32.87,69.69-52.76c21.18-19.89,39.45-40.57,54.84-62.04
		c15.39-21.48,27.31-43.05,35.83-64.74c8.48-21.67,12.74-41.91,12.74-60.69c0-13.79-2.37-26.48-7.05-38.07
		c-4.7-11.57-12-21.57-21.89-29.96c-9.87-8.4-22.58-14.95-38.05-19.64c-15.49-4.7-34.01-7.04-55.6-7.04
		c-30.97,0-60.29,3.09-87.96,9.3c-27.68,6.18-53.27,14.37-76.74,24.58c-23.48,10.18-44.65,21.87-63.54,35.05
		c-18.88,13.2-34.92,26.84-48.1,40.92c-13.18,14.09-23.32,28.07-30.42,41.96c-7.09,13.89-10.64,26.52-10.64,37.91
		c0,9.19,1.45,16.82,4.35,22.93c2.9,6.1,6.64,10.94,11.23,14.54c4.59,3.59,9.65,6.09,15.13,7.5c5.5,1.39,10.84,2.1,16.02,2.1h1.81
		c9.59,0,20.28-3.1,32.06-9.3c11.8-6.19,24.03-14.04,36.71-23.53c12.7-9.49,25.44-19.97,38.23-31.47
		c12.79-11.49,24.96-22.52,36.55-33.12c7.98-7.6,15.74-14.73,23.23-21.43c7.49-6.69,13.94-12.33,19.33-16.94
		c-3.99,11.4-9.68,24.73-17.07,40.02c-7.4,15.29-15.19,31.43-23.39,48.41c-6.01,11.99-11.89,24.07-17.69,36.26
		c-5.79,12.18-10.99,23.58-15.58,34.17c-4.59,10.59-8.3,20.07-11.08,28.46c-2.8,8.38-4.2,14.9-4.2,19.48
		c0,5.19,0.99,9.95,2.98,14.23c2.02,4.31,4.61,8.05,7.81,11.25c3.18,3.18,6.67,5.73,10.5,7.65c3.78,1.88,7.38,3.13,10.77,3.74
		c-13.18,5.18-26.48,9.18-39.85,11.98c-13.39,2.8-26.98,4.2-40.76,4.2c-5,0-9.06-0.55-12.15-1.65c-3.09-1.1-5.49-2.45-7.19-4.04
		c-1.7-1.6-2.95-3.39-3.75-5.39c-0.79-2.01-1.5-3.88-2.1-5.7c-1.19-3.79-2.55-6.94-4.04-9.44c-1.48-2.51-4.54-3.74-9.14-3.74
		c-3.79,0-6.64,1.3-8.55,3.89c-1.89,2.59-2.84,5.9-2.84,9.9c0,3.58,0.95,7.73,2.84,12.43c1.91,4.7,4.91,9.1,9,13.19
		c4.1,4.09,9.34,7.59,15.74,10.48c6.39,2.9,14.08,4.35,23.08,4.35c18.22,0,36.2-1.7,53.93-5.07c-4.56,11.21-9.28,24.7-14.18,40.67
		c-6.18,20.07-12.26,42.74-18.24,68.02c-5.29,22.34-10.04,44.95-14.42,67.74c-7.74,18.67-17.11,34.96-28.27,48.6
		c-12.15,14.86-24.98,27.3-38.48,37.33c9.25-16.98,16.79-34.44,22.56-52.39c5.79-17.94,8.68-35.02,8.68-51.22
		c0-4.63-1.35-9.94-4.05-15.92c-2.7-5.98-6.28-11.57-10.71-16.79c-4.44-5.21-9.45-9.64-15.04-13.31c-5.6-3.66-11.49-5.5-17.66-5.5
		c-7.33,0-14.37,2.99-21.12,8.96c-6.75,6-13.03,13.23-18.81,21.72c-5.79,8.1-11.01,16.49-15.64,25.17
		c-4.61,8.69-9.06,17.47-13.3,26.34c3.85-17.75,8.1-35.68,12.73-53.83c4.61-18.14,9.34-35.11,14.18-50.93
		c4.82-15.82,9.64-30.3,14.46-43.41c4.82-13.12,9.56-23.74,14.18-31.84c0.77-1.93,1.74-3.56,2.9-4.92c1.16-1.34,2.5-2.98,4.05-4.92
		c0.77-0.76,1.16-1.73,1.16-2.88c0-2.32-2.13-4.82-6.37-7.53c-4.26-2.7-9.08-5.2-14.48-7.53c-5.4-2.32-10.99-4.35-16.78-6.08
		c-5.78-1.72-10.03-2.6-12.74-2.6c-4.24,0-9.17,6.36-14.76,19.1c-5.59,12.73-11.48,29.22-17.65,49.49
		c-6.17,20.26-12.25,43.12-18.23,68.58c-5.98,25.47-11.39,51.15-16.2,76.98c-0.41,2.17-0.77,4.29-1.16,6.45
		c-3.36,5.47-6.86,10.87-10.65,16.13c-5.02,6.94-10.41,12.93-16.2,17.95c-5.79,5.01-11.77,7.52-17.94,7.52c-3.1,0-5.8-1.64-8.1-4.92
		c-2.31-3.27-3.28-8.58-2.89-15.91c0.77-10.03,3.56-21.42,8.39-34.15c4.82-12.73,12.25-23.35,22.28-31.85
		c3.1-2.31,5.4-4.91,6.96-7.81c1.54-2.9,0.38-6.26-3.47-10.13c-2.32-2.32-5.12-4.35-8.4-6.08c-3.28-1.74-6.75-3.27-10.41-4.63
		c-3.68-1.34-7.05-2.41-10.14-3.18c-3.09-0.77-5.4-1.16-6.94-1.16c-4.63,0-8.31,1.35-10.99,4.05c-6.96,5.8-13.99,13.31-21.13,22.58
		c-7.14,9.26-14.18,19.49-21.12,30.68c-6.96,11.2-13.61,22.77-19.97,34.73c-6.37,11.97-12.07,23.54-17.08,34.72
		c3.86-15.81,8.2-31.63,13.04-47.46c4.82-15.82,9.92-30.68,15.34-44.57c1.15-3.09,2.68-6.26,4.63-9.55c1.91-3.27,1.33-6.08-1.74-8.4
		c-1.93-1.54-4.35-3.27-7.24-5.21c-2.89-1.93-6.17-3.75-9.85-5.49c-3.66-1.74-7.33-3.19-10.99-4.35c-3.68-1.15-6.86-1.73-9.55-1.73
		c-3.47,0-6.19,2.51-8.1,7.52c-6.18,13.9-11.87,29.05-17.08,45.44c-5.21,16.41-9.94,33.19-14.18,50.36c-1.08,4.35-2,8.69-3,13.02
		c-5.42,6.39-11.24,13.25-15.92,18.5c-7.77,8.75-39.38,33.54-50.07,43.29c-10.71,9.78-23.08,19.06-37.13,27.89
		c-14.04,8.83-28.75,16.66-44.14,23.49c-15.39,6.81-30.77,12.23-46.15,16.24c-15.39,4.01-29.9,6.02-43.53,6.02
		c-9.1,0-17.53-1.15-25.29-3.41c-7.76-2.27-14.44-5.96-20.06-11.03c-5.61-5.08-10.03-11.64-13.25-19.67
		c-3.2-8.03-4.81-17.78-4.81-29.29c0-10.42,3.61-23.27,10.84-38.53c7.22-15.25,17.12-30.89,29.7-46.95
		c12.57-16.04,27.49-31.42,44.74-46.15c17.25-14.72,35.92-26.75,55.98-36.12c12.84,5.88,26.49,10.11,40.93,12.64
		c14.45,2.54,28.63,3.81,42.54,3.81c4.02,0,7.36-0.67,10.03-2.01c2.67-1.33,4.94-2.94,6.81-4.81h2.42c0.8,0,2.61-0.34,5.42-1
		c2.81-0.67,5.6-2.01,8.41-4.02c2.81-2.01,5.36-4.81,7.63-8.42c2.28-3.61,3.41-8.23,3.41-13.85c0-2.4-0.39-6.88-1.19-13.44
		c-0.8-6.55-3.75-13.24-8.84-20.07c-5.09-6.81-12.97-12.84-23.66-18.06c-10.71-5.21-26.09-7.83-46.16-7.83
		c-8.02,0-16.38,0.95-25.07,2.82c-8.7,1.88-17.59,4.55-26.68,8.02c0.25-6.94,2.59-14.84,7.02-23.67
		c4.41-8.83,10.29-17.85,17.65-27.08c7.36-9.24,16.11-18.2,26.28-26.9c10.17-8.69,21.28-16.45,33.32-23.27
		c12.03-6.81,24.93-12.3,38.72-16.45c13.77-4.14,27.89-6.22,42.33-6.22c6.16,0,10.84,0.95,14.05,2.82
		c-7.76,13.64-14.73,27.02-20.87,40.12c-6.17,13.11-9.23,25.42-9.23,36.92c0,7.5,1.54,14.31,4.62,20.47
		c3.06,6.16,6.95,11.38,11.63,15.65c4.68,4.28,9.77,7.62,15.25,10.03c5.48,2.41,10.65,3.61,15.45,3.61c4.29,0,7.43-0.6,9.44-1.8
		c2.01-1.21,3.27-2.82,3.82-4.83c0.53-2,0.46-4.33-0.2-7.02c-0.67-2.67-1.41-5.48-2.21-8.42v0.4c-0.53-1.34-0.94-2.62-1.19-3.81
		c-0.28-1.21-0.41-2.48-0.41-3.82c0-4.28,0.87-9.03,2.61-14.25c1.74-5.22,4.08-10.63,7.03-16.25c2.94-5.61,6.14-11.37,9.62-17.26
		c3.47-5.89,7.08-11.76,10.84-17.65c4.27-6.43,8.49-13.11,12.64-20.07c4.14-6.96,7.82-13.85,11.04-20.66
		c3.21-6.83,5.82-13.64,7.82-20.46c2.01-6.83,3.02-13.31,3.02-19.46c0-9.63-2.75-17.73-8.23-24.28
		c-5.48-6.55-11.57-11.45-18.26-14.66c-6.69-3.21-12.78-4.74-18.26-4.62c-5.48,0.14-8.23,2.21-8.23,6.23
		c0,6.96-1.48,14.44-4.41,22.47c-2.95,8.02-6.69,16.32-11.24,24.89c-4.55-6.42-11.23-11.97-20.07-16.65
		c-8.82-4.69-21.13-7.03-36.91-7.03c-13.38,0-27.56,2.41-42.54,7.22c-14.98,4.81-29.75,11.38-44.34,19.66
		c-14.58,8.29-28.56,17.85-41.94,28.69c-13.38,10.83-25.08,22.27-35.11,34.3c-10.04,12.05-18.07,24.15-24.08,36.33
		c-6.02,12.18-9.04,23.88-9.04,35.11c0,7.77,0.8,15.12,2.42,22.08c1.6,6.95,3.61,13.37,6.02,19.26
		c-21.13,11.77-41.68,26.08-61.6,42.93c-19.93,16.86-37.59,34.58-52.98,53.17c-15.38,18.6-27.69,37.19-36.92,55.78
		c-9.23,18.59-13.85,35.51-13.85,50.77c0,20.61,2.81,37.98,8.43,52.17c5.62,14.18,13.31,25.75,23.07,34.71
		c9.76,8.96,21.33,15.45,34.71,19.46c13.38,4.02,27.82,6.02,43.34,6.02c18.72,0,38.45-2.68,59.19-8.03
		c20.73-5.35,41.26-12.58,61.59-21.67c20.33-9.1,39.74-19.6,58.19-31.5c18.46-11.91,40.74-33.07,54.92-46.04
		c8.59-7.86,15.03-15.89,20.63-23.94c-2.79,16.02-4.76,31.12-5.86,45.25c0,3.1,1.26,6.28,3.77,9.55c2.5,3.29,5.59,6.28,9.26,8.97
		c3.66,2.71,7.62,4.92,11.86,6.66c4.24,1.74,8.1,2.61,11.59,2.61c1.92,0,3.56-0.29,4.92-0.87c1.35-0.58,2.03-2.41,2.03-5.5
		c0.77-9.26,3.85-21.99,9.26-38.2c5.4-16.2,12.15-33.18,20.26-50.93c8.1-17.75,17.07-35.21,26.91-52.38
		c9.85-17.16,19.39-31.35,28.66-42.54c1.16-1.54,2.03-2.41,2.61-2.61c0.58-0.19,0.28,1.07-0.87,3.76
		c-4.25,8.89-8.12,19.2-11.59,30.97c-3.47,11.78-4.82,22.09-4.05,30.97c0.77,6.56,3.38,12.44,7.82,17.65
		c4.43,5.2,9.64,9.46,15.62,12.73c5.98,3.29,12.15,5.5,18.53,6.65c6.36,1.17,12.06,0.78,17.07-1.15
		c6.96-2.31,13.61-6.66,19.97-13.03c3.94-3.94,7.68-8.18,11.32-12.56c-1.66,10.87-3.16,21.54-4.44,31.95
		c-2.89,23.53-4.33,43.41-4.33,59.61c0,3.1,1.35,6.17,4.05,9.26c2.7,3.1,5.98,5.8,9.84,8.12c3.85,2.31,7.99,4.24,12.44,5.78
		c4.43,1.55,8.4,2.32,11.87,2.32c4.24,0,6.45-1.17,6.66-3.47c0.19-2.32,0.28-4.44,0.28-6.37c2.32,1.93,5.4,4.05,9.27,6.37
		c3.85,2.31,7.33,3.47,10.43,3.47c10.41,0,21.79-4.92,34.15-14.76c12.34-9.85,24.31-22.49,35.88-37.92
		c23.93-12.74,44.66-28.93,62.23-48.62c5.67-6.36,10.8-13.11,15.69-20.03c-1.82,11.83-3.44,23.44-4.83,34.79
		c-2.89,23.73-4.35,44.09-4.35,61.06c0,3.1,1.35,6.17,4.05,9.26c2.7,3.1,5.98,5.8,9.85,8.12c3.85,2.31,8.01,4.24,12.45,5.78
		c4.43,1.55,8.38,2.32,11.85,2.32c4.63,0,6.96-2.32,6.96-6.95c0-3.47,0.19-7.04,0.58-10.7c0.38-3.68,0.96-7.24,1.73-10.71
		c3.86-20.06,11.19-41.69,22-64.82c0.77,8.48,2.7,18.14,5.79,28.93c3.08,10.8,7.22,20.93,12.44,30.38
		c5.21,9.47,11.39,17.47,18.53,24.02c7.13,6.56,15.14,9.85,24.03,9.85c8.1,0,16.11-3.29,24.02-9.85
		c7.9-6.56,15.53-14.94,22.86-25.18c7.32-10.22,14.08-21.7,20.26-34.44c1.18-2.43,2.27-4.84,3.42-7.26
		c0.22,7.96,1.69,16.16,4.54,24.66c3.09,9.21,7.42,17.77,13.03,25.69c5.59,7.93,12.53,14.45,20.84,19.59
		c8.29,5.13,17.65,7.71,28.07,7.71c17.37,0,33.37-6.32,48.04-18.96c14.66-12.6,27.4-28.77,38.2-48.47
		c18.87-13.11,35.28-28.65,49.47-46.41c-1.01,5.16-1.9,10.34-2.66,15.57c-3.07,21.42-3.66,40.9-1.72,58.45
		c1.15,11.56,5.01,21.09,11.57,28.59c6.57,7.5,15.63,11.24,27.21,11.24c12.74,0,24.49-6.96,35.3-20.87
		c10.8-13.92,20.46-30.5,28.93-49.78c-2.31,9.42-4.61,18.74-6.93,27.94c-2.31,9.22-4.63,18.31-6.94,27.3
		c-6.18,4.71-12.84,9.42-19.97,14.13c-7.14,4.7-14.18,9.63-21.13,14.77c-6.94,5.14-13.69,10.49-20.26,16.06
		c-6.56,5.55-12.35,11.76-17.36,18.62c-4.63,5.57-8.59,11.89-11.87,18.95c-3.27,7.06-5.57,14.33-6.94,21.82
		c-1.35,7.49-1.45,15.1-0.29,22.8c1.15,7.71,3.86,14.77,8.1,21.2c4.24,6.85,9.83,11.97,16.79,15.4c6.94,3.43,13.9,5.15,20.83,5.15
		c22.38,0,39.26-6.53,50.65-19.59c11.37-13.07,20.54-30.3,27.5-51.71c6.55-20.13,12.34-40.45,17.36-61.02
		c5.01-20.55,9.64-41.3,13.88-62.29c19.3-17.98,37.62-38.75,54.99-62.29c2.83-3.84,5.55-7.83,8.21-11.91
		c-3.29,21.13-5.69,40.39-7.12,57.66c-0.38,5.79-0.56,11.97-0.56,18.52c0,6.56,0.86,12.64,2.6,18.23
		c1.73,5.59,4.71,10.33,8.97,14.18c4.24,3.86,10.41,5.79,18.53,5.79c8.48,0,16.79-3.29,24.89-9.85c8.1-6.56,16-14.94,23.72-25.18
		c6.26-8.29,12.26-17.46,18.02-27.41c1.48,9.5,4.12,18.17,8.04,25.96c5.4,10.81,13.6,19.59,24.6,26.35
		c10.99,6.75,25.17,10.13,42.54,10.13c16.2,0,30.62-6.84,45.15-18.24c17.97-14.11,30.19-24.12,41.4-41.68
		c9.18-14.42,20.23-31.36,28.5-47.65c-4.82,44.58-2.33,92.76,18.14,118.58c18.33,23.1,66.45,27.92,49.43-10.14
		c-9.85-40.28-17.93-105.54-6.8-144.3c35.88,90.96,128.06,176.89,228.83,184.41c36.1,2.69,73.3-5.04,105.17-22.18
		C2221.99,872.61,2294.39,819.66,2277.79,801.74z M1682.93,733.26c2.88-10.42,6.45-20.26,10.7-29.52
		c4.24-9.26,8.97-17.65,14.18-25.17c5.21-7.53,10.71-13.41,16.5-17.66c4.25-3.48,8.39-4.34,12.44-2.61
		c4.05,1.74,6.08,5.7,6.08,11.87c0,11.58-1.93,22.97-5.78,34.15c-3.86,11.2-8.98,21.14-15.34,29.82
		c-6.38,8.69-13.52,15.72-21.42,21.12c-7.91,5.41-15.73,8.1-23.44,8.1C1678.01,753.71,1680.04,743.68,1682.93,733.26z
		 M1033.73,440.59c2.58-6.99,6.02-15.19,10.33-24.57c4.3-9.38,9.24-19.64,14.82-30.73c5.6-11.08,11.29-22.42,17.08-34
		c6.2-12.6,12.4-25.03,18.59-37.33c6.2-12.28,11.69-23.83,16.48-34.62c4.79-10.77,8.69-20.42,11.7-28.93
		c3.01-8.48,4.49-15.12,4.49-19.92c0-3.79-1.39-7.6-4.19-11.39c-2.79-3.8-6.09-7.14-9.89-10.05c-3.8-2.9-7.74-5.18-11.84-6.89
		c-4.1-1.7-7.35-2.34-9.75-1.95h0.62c-4.21,0-9.34,1.74-15.44,5.24c-6.09,3.5-12.9,8.2-20.39,14.09
		c-7.49,5.9-15.43,12.69-23.83,20.37c-8.38,7.7-16.98,15.64-25.76,23.83c-10.41,9.59-21.04,19.34-31.93,29.22
		c-10.88,9.9-21.4,18.79-31.46,26.69c-10.11,7.88-19.54,14.38-28.34,19.48c-8.78,5.1-16.29,7.64-22.47,7.64
		c-0.2,0-0.31,0.06-0.31,0.15c0,0.1-0.1,0.15-0.3,0.15c-1.4-0.4-2.55-1.29-3.45-2.7c-0.9-1.4-1.36-3.5-1.36-6.29
		c0-6.6,2.95-15.7,8.86-27.28c5.9-11.59,14.43-24.17,25.63-37.75c11.16-13.59,24.86-27.43,41.05-41.52
		c16.19-14.09,34.56-26.83,55.16-38.22c20.56-11.38,43.2-20.68,67.88-27.86c24.67-7.18,51.11-10.8,79.27-10.8
		c11.39,0,21.13,1.51,29.22,4.5c8.08,3,14.73,7.15,19.93,12.44c5.18,5.3,9.03,11.69,11.53,19.18c2.5,7.5,3.76,15.74,3.76,24.74
		c0,13.18-2.32,27.53-6.89,43.01c-4.61,15.49-11.09,31.32-19.49,47.51c-8.38,16.19-18.52,32.37-30.42,48.55
		c-11.88,16.18-25.14,31.58-39.72,46.17c-14.59,14.59-30.31,28.02-47.2,40.31c-16.89,12.27-34.62,22.63-53.21,31.01
		c0.4-1.4,0.36-2.99-0.14-4.79c-0.49-1.81-1.04-3.71-1.65-5.7v0.29c-0.61-1.79-0.89-3.69-0.89-5.69
		C1029.83,452.78,1031.12,447.59,1033.73,440.59z M443.38,633.07c4.27-0.27,8.28-0.4,12.03-0.4c6.15,0,11.37,0.74,15.65,2.21
		c4.27,1.48,7.08,3,8.43,4.6c-0.27,0.28-0.53,0.48-0.8,0.62c-0.27,0.12-0.55,0.34-0.8,0.6h-3.63c-0.53,0-1.13,0.06-1.8,0.19
		c-0.66,0.14-1.54,0.2-2.61,0.2c-4.55,0-10.18-0.46-16.85-1.4c-6.69-0.93-13.91-2.74-21.67-5.41
		C435.08,633.74,439.1,633.33,443.38,633.07z M852.16,709.23c-2.9,13.32-6.47,26.16-10.71,38.5c-4.26,12.35-9.07,23.92-14.48,34.73
		c-5.4,10.8-10.8,19.88-16.2,27.2c-6.94,2.31-13.6,4.05-19.97,5.2c-6.36,1.16-12.25,2.13-17.65,2.9
		c2.69-17.75,6.85-35.11,12.44-52.09c5.59-16.98,12.45-33.58,20.55-49.79c9.27-18.52,19.68-36.47,31.26-53.83
		c5.39-7.71,10.22-10.5,14.46-8.39c4.24,2.13,6.17,7.62,5.79,16.49C856.87,682.9,855.05,695.92,852.16,709.23z M1023.93,734.71
		c-6.38,5.98-12.08,10.7-17.08,14.18c7.33-14.66,15.06-29.51,23.16-44.58c8.1-15.04,17.74-28.73,28.94-41.09
		c5.01-5.4,8.1-6.84,9.26-4.35c1.15,2.52,1.15,5.7,0,9.56c-1.95,7.71-5.31,15.61-10.13,23.72c-4.84,8.1-10.14,15.73-15.92,22.86
		C1036.37,722.16,1030.29,728.73,1023.93,734.71z M1258.5,703.02c-1.93,12.42-4.54,24.84-7.81,37.24
		c-3.29,12.44-7.24,24.41-11.87,35.98c-4.63,11.55-9.46,21.42-14.47,29.53c-6.57,2.15-12.15,3.86-16.78,5.14
		c-4.63,1.29-10.22,2.36-16.79,3.21c-1.54,0-3.47,0.44-5.8,1.29c-3.47-8.56-5.2-20.23-5.2-35c0-14.78,1.54-30.18,4.63-46.23
		c3.08-16.06,7.71-31.68,13.88-46.88c6.17-15.19,13.32-27.94,21.42-38.21c5.01-6.42,10.03-10.92,15.06-13.5
		c5.01-2.56,9.55-3.2,13.6-1.91c4.05,1.27,7.24,4.8,9.54,10.58c2.33,5.79,3.47,14.02,3.47,24.72
		C1261.38,679.25,1260.43,690.61,1258.5,703.02z M1398.79,913.67c-3.66,13.27-7.22,25.46-10.7,36.62
		c-3.48,11.55-7.91,19.99-13.31,25.37c-5.41,5.35-10.63,8.02-15.63,8.02c-5.78,0-10.13-2.58-13.02-7.71
		c-2.89-5.14-4.54-10.49-4.92-16.04c-0.39-10.29,1.73-19.71,6.36-28.26c4.63-8.57,10.5-16.49,17.65-23.76
		c7.14-7.29,14.76-13.82,22.87-19.6c8.1-5.78,15.42-11.24,21.99-16.38C1406.22,886.48,1402.46,900.39,1398.79,913.67z
		 M1460.73,647.46c-0.97,2.8-1.84,5.69-2.61,8.68c-1.54,5.14-3.86,12.84-6.93,23.11c-3.1,10.29-6.57,21.74-10.43,34.35
		c-3.86,12.64-8.2,25.7-13.02,39.18c-4.84,13.5-9.75,25.69-14.76,36.61c-5.02,10.92-10.05,19.91-15.06,26.98
		c-5.01,7.06-9.83,10.6-14.46,10.6c-2.33,0-4.05-1.29-5.21-3.85c-1.17-2.58-1.93-5.47-2.33-8.68c-0.38-3.2-0.48-6.52-0.28-9.95
		c0.19-3.42,0.28-5.98,0.28-7.71c0.77-13.69,3.19-30.07,7.24-49.13c4.05-19.04,9.36-37.25,15.92-54.58
		c6.57-17.34,14.09-31.99,22.58-43.99c8.48-11.99,17.75-18,27.78-18c6.17,0,10.8,2.8,13.9,8.36
		C1462.55,642.01,1461.69,644.7,1460.73,647.46z M1828.84,631.5c0.06,0.83,18.63,6.69,15.62,14.09
		C1840.32,656.41,1829.1,635.13,1828.84,631.5z"/>
	<path d="M2277.79,801.74C2280.14,804.27,2275.45,799.2,2277.79,801.74L2277.79,801.74z"/>
</g>
</svg>
