<?xml version="1.0" encoding="utf-8"?>
<!-- Generator: Adobe Illustrator 26.3.1, SVG Export Plug-In . SVG Version: 6.00 Build 0)  -->
<svg version="1.1" id="Ebene_1" xmlns="http://www.w3.org/2000/svg" xmlns:xlink="http://www.w3.org/1999/xlink" x="0px" y="0px"
	 viewBox="0 0 1644.09 1105.51" style="enable-background:new 0 0 1644.09 1105.51;" xml:space="preserve">
<style type="text/css">
	.st0{fill:none;stroke:#000000;stroke-width:0.5853;stroke-miterlimit:10;}
</style>
<g>
	<g>
		<path class="st0" d="M49.48,420.62"/>
	</g>
</g>
<path d="M359.91,413.63c22.19-7.08,41.2-17.67,58.24-38.89c17.01-21.21-1.03-6.3-22.29-0.43c-21.25,5.87-21.99-0.73-37.91-5.36
	c-15.94-4.62-29.71,4.77-42.42,12.59c0,0-14.84,25.95-14.84,42.07C300.69,439.73,337.72,420.72,359.91,413.63z"/>
<g>
	<path d="M162.99,435.18c-1.9-3.24-3.78-6.45-5.57-9.63c-1.21,0.56-2.4,1.06-3.71,1.82C148.28,430.52,153.19,432.96,162.99,435.18z"
		/>
</g>
<g>
	<path d="M437.65,594.2c-0.53-1.72-1.22-3.24-2.1-4.52c-0.89-1.29-1.62-1.9-2.23-1.82c-9.22,0.54-18.28,1.69-27.14,3.45
		c0.78-6.68,1.66-13.47,2.63-20.38c0.97-6.9,2.39-13.66,4.26-20.28c0.81-3.49,2.07-6.73,3.78-9.74c0.32-0.83,0.46-1.35,0.43-1.55
		c-0.4-1.54-2.71-2.9-6.96-4.05c-4.24-1.16-8.49-1.94-12.75-2.39c12.43-3.02,24.87-5.59,37.33-7.69c12.46-2.09,24.9-3.83,37.34-5.2
		c2.48-0.27,3.71-1.49,3.69-3.68c0.02-1.79-0.35-3.73-1.1-5.84c-0.77-2.11-1.72-4.15-2.89-6.11c-1.16-1.95-2.54-3.54-4.15-4.76
		c-1.61-1.21-3.17-1.84-4.64-1.87c-8.04-0.1-16.12,0.43-24.23,1.6c-8.1,1.16-16.2,2.44-24.28,3.85
		c-13.85,2.53-27.41,5.37-40.64,8.48c-13.24,3.11-25.03,6.3-35.35,9.53c-10.34,3.22-18.71,6.37-25.13,9.36
		c-6.42,2.99-9.57,5.5-9.47,7.49c0.02,1.4,0.5,3.47,1.47,6.22c0.97,2.75,2.13,5.47,3.5,8.15c1.36,2.69,2.8,5.08,4.28,7.14
		c1.48,2.07,2.83,3,4.06,2.82c0.24,0.17,0.73-0.01,1.49-0.53c0.73-0.72,1.48-1.37,2.21-2c0.75-0.61,1.61-1.19,2.57-1.74
		c2.31-1.36,5-2.71,8.04-4.08c3.06-1.36,6.46-2.82,10.23-4.38c8.14-3.2,15.51-5.75,22.07-7.69c6.55-1.92,14.1-3.97,22.65-6.12
		c-3.41,10.63-5.71,21.37-6.92,32.22c-1.22,10.85-2.23,21.41-3.06,31.72c-8.48,2.98-16.58,7.05-24.28,12.18
		c-1.51,1.02-2.53,2.13-3.07,3.3c-0.54,1.18-0.89,2.67-1.04,4.5c0.02,2.8,0.37,5.9,1.09,9.28c0.71,3.39,2.07,6.34,4.09,8.84
		c1,1.25,2.15,1.37,3.43,0.38c5.39-5.19,11.48-9.86,18.28-14.03c-0.53,12.26-0.66,24.17-0.44,35.71
		c0.23,11.56,0.89,21.05,1.96,28.47c0.22,1.58,1.14,3.03,2.75,4.41c1.6,1.37,3.48,2.5,5.62,3.4c2.13,0.89,4.39,1.57,6.77,2.04
		c2.36,0.46,4.44,0.57,6.22,0.33c2.35-0.33,3.38-1.66,3.06-4.02c-0.18-1.36-0.34-2.84-0.45-4.42c-0.13-1.58-0.23-3.46-0.32-5.64
		c0.11-8,0.75-15.91,1.92-23.76c1.17-7.84,3.22-15.29,6.16-22.36c2.94-7.07,6.82-13.65,11.68-19.76c4.84-6.11,10.98-11.6,18.39-16.5
		c0.56-0.46,0.7-1.48,0.4-3.03C438.58,597.57,438.18,595.93,437.65,594.2z M408.67,618.5c-2.73,4.95-5.03,9.54-6.92,13.78
		c0.38-3.24,0.71-6.93,0.98-11.05c0.27-4.13,0.61-7.82,0.99-11.06c4.69-1.82,9.55-3.34,14.52-4.58
		C414.59,609.25,411.4,613.56,408.67,618.5z"/>
	<path d="M469.98,542.21c-0.65,5.35-0.4,9.99,0.77,13.93c1.17,3.96,3.89,5.59,8.16,4.92c1.84-0.19,4-1.77,6.49-4.72
		c2.49-2.95,4.98-6.34,7.49-10.18c2.51-3.85,4.86-7.76,7.06-11.76c2.19-3.99,3.92-7.15,5.15-9.47c2.99-5.66,2.18-9.65-2.46-11.97
		c-3.11-1.67-6.67-3.1-10.68-4.27c-4.01-1.17-6.86-1.76-8.54-1.79c-2.09,0.22-4.29,3.25-6.59,9.06c-0.86,1.88-2.04,5.4-3.58,10.53
		S470.64,536.88,469.98,542.21z"/>
	<path d="M846.57,549.33c-1.65-0.38-2.87-0.57-3.69-0.57c-2.46,0.02-4.41,0.72-5.84,2.11c-3.67,2.98-7.38,6.86-11.12,11.65
		c-3.74,4.77-7.41,10.06-11.01,15.83c-3.59,5.79-7,11.76-10.26,17.94c-3.24,6.18-6.12,12.16-8.63,17.94
		c1.87-8.14,3.99-16.28,6.4-24.43c2.4-8.15,4.99-15.79,7.75-22.95c0.59-1.59,1.38-3.23,2.38-4.92c1.01-1.69,0.68-3.13-0.97-4.29
		c-1.04-0.77-2.33-1.64-3.88-2.61c-1.55-0.97-3.3-1.88-5.27-2.74c-1.97-0.86-3.93-1.56-5.88-2.12c-1.96-0.56-3.66-0.83-5.09-0.8
		c-1.85,0.03-3.26,1.36-4.23,3.94c-3.14,7.18-5.99,15-8.54,23.47c-0.42,1.36-0.7,2.81-1.1,4.18c-2.33,6.2-5.05,13.04-8.34,20.81
		c-3.71,8.8-7.92,17.17-12.6,25.12s-9.78,14.69-15.27,20.22c-5.51,5.53-11.22,8.41-17.19,8.64c-6.98,0.28-11.91-2.27-14.84-7.68
		s-4.4-12.08-4.34-20c5.81-0.25,11.92-1.76,18.36-4.48c6.43-2.73,12.39-6.4,17.88-11.05c5.49-4.64,9.98-9.98,13.44-16.01
		c3.47-6.03,5.12-12.51,4.92-19.42c-0.09-3.16-1.3-6.38-3.65-9.69c-2.35-3.29-5.2-6.26-8.56-8.93c-3.37-2.66-6.97-4.76-10.82-6.31
		c-3.86-1.55-7.22-2.27-10.09-2.16c-5.55,0.21-10.87,2.16-15.94,5.83c-5.08,3.69-9.74,8.4-13.97,14.14
		c-4.24,5.73-7.8,12.29-10.68,19.66c-2.07,5.26-3.58,10.57-4.84,15.89c-0.92,1.38-1.82,2.79-2.8,4.09
		c-5.95,7.93-12.28,14.67-19,20.21c4.3-8.96,7.73-18.12,10.26-27.46c2.54-9.35,3.59-18.16,3.14-26.45
		c-0.13-2.37-0.99-5.04-2.58-8.03c-1.6-2.98-3.65-5.74-6.14-8.28c-2.51-2.54-5.3-4.64-8.39-6.35c-3.08-1.7-6.26-2.45-9.55-2.25
		c-3.9,0.24-7.55,2-10.95,5.29c-3.38,3.29-6.46,7.21-9.24,11.75c-2.78,4.35-5.24,8.83-7.37,13.43c-2.14,4.61-4.15,9.26-6.05,13.95
		c1.36-9.21,2.96-18.53,4.76-27.98c1.81-9.43,3.73-18.29,5.75-26.55c2.03-8.25,4.12-15.83,6.27-22.7
		c2.16-6.87,4.36-12.47,6.59-16.76c0.35-1.01,0.82-1.88,1.4-2.62c0.58-0.73,1.26-1.61,2.03-2.65c0.4-0.41,0.57-0.93,0.54-1.52
		c-0.08-1.18-1.31-2.39-3.69-3.64c-2.38-1.23-5.08-2.35-8.08-3.34c-3.01-1-6.1-1.83-9.3-2.51c-3.2-0.68-5.53-0.96-7-0.85
		c-2.3,0.16-4.74,3.59-7.29,10.32c-2.55,6.73-5.12,15.39-7.66,25.98c-2.55,10.6-4.91,22.52-7.08,35.79
		c-2.18,13.25-4,26.58-5.47,39.98c-0.68,6.12-1.23,12.08-1.7,17.94c-3,7.99-6.35,15.71-10.16,23.05c-4.25,8.2-8.97,15.2-14.17,21.02
		c-5.2,5.82-10.76,9-16.7,9.57c-6.95,0.65-12.02-1.63-15.25-6.87c-3.22-5.24-5.04-11.82-5.43-19.73c5.8-0.57,11.83-2.4,18.12-5.47
		c6.27-3.07,12.03-7.07,17.27-12c5.24-4.92,9.43-10.49,12.56-16.71c3.14-6.21,4.44-12.77,3.86-19.66c-0.26-3.14-1.64-6.3-4.17-9.47
		c-2.53-3.16-5.54-5.99-9.04-8.46c-3.5-2.47-7.22-4.38-11.16-5.72c-3.93-1.33-7.33-1.87-10.2-1.6c-5.52,0.51-10.74,2.75-15.61,6.69
		c-4.88,3.95-9.29,8.91-13.2,14.87c-3.93,5.96-7.13,12.7-9.61,20.21c-2.49,7.52-4.19,15.05-5.11,22.6c-0.3,2.4-0.3,4.75-0.38,7.1
		c-0.11,0.3-0.18,0.57-0.3,0.87c-2.59,7.05-5.54,13.87-8.84,20.5c-3.3,6.62-6.98,12.47-11.01,17.5c-1.06,1.32-2.09,1.92-3.1,1.84
		c-1.01-0.08-1.44-1.22-1.3-3.43c0.38-5.41,0.93-11.6,1.64-18.55c0.72-6.94,1.68-14.17,2.87-21.66c1.19-7.49,2.54-15,4.06-22.54
		c1.51-7.52,3.24-14.68,5.17-21.45c0.24-1.61,0.77-3.31,1.61-5.09c0.84-1.78,0.38-3.18-1.37-4.18c-1.12-0.67-2.47-1.41-4.12-2.24
		c-1.64-0.81-3.42-1.56-5.35-2.24c-1.94-0.68-3.91-1.2-5.91-1.57c-2.01-0.38-3.73-0.48-5.16-0.32c-1.84,0.21-3.22,1.68-4.15,4.36
		c-3.96,12.4-7.06,26.16-9.35,41.26c-2.29,15.11-3.65,29.77-4.14,43.96c-0.16,2.02-0.18,3.91-0.06,5.68
		c0.11,1.79,0.09,3.68-0.06,5.69c0.08,2.37,0.62,4.7,1.6,6.97c0.98,2.27,2.34,4.3,4.05,6.08c1.72,1.79,3.69,3.14,5.9,4.07
		c2.22,0.93,4.6,1.24,7.17,0.93c4.14-0.49,8.14-2.64,12.01-6.46c3.87-3.82,7.49-8.56,10.89-14.2c3.17-5.29,6.1-11.16,8.86-17.53
		c1.28,5.67,3.14,10.84,5.94,15.18c3.37,5.21,8.04,9.24,14.03,12.11c5.99,2.87,13.42,3.85,22.31,3.01c8.3-0.8,15.72-4.6,22.3-11.43
		c6.59-6.84,12.4-14.97,17.46-24.42c1.17-2.19,2.16-4.47,3.26-6.7c-0.3,9.92-0.17,18.51,0.4,25.6c0.14,1.57,0.96,3.1,2.47,4.55
		c1.52,1.47,3.31,2.71,5.4,3.73c2.06,1.02,4.28,1.84,6.61,2.46c2.34,0.61,4.4,0.85,6.18,0.7c2.17-0.16,3.27-0.84,3.28-2.03
		c0.01-1.19-0.02-2.28-0.1-3.26c1.27,0.9,2.93,1.86,5,2.9c2.07,1.04,3.89,1.5,5.48,1.39c5.34-0.39,10.99-3.31,17.01-8.76
		c6-5.46,11.76-12.31,17.25-20.57c10.89-6.62,20.33-14.64,28.45-23.96c-0.17,3.86-0.09,7.69,0.33,11.48
		c0.77,7.18,2.71,13.46,5.79,18.85c3.07,5.39,7.53,9.66,13.34,12.85c5.82,3.18,13.18,4.58,22.09,4.21
		c8.32-0.34,15.93-3.74,22.86-10.22c6.95-6.47,13.18-14.27,18.74-23.43c2.08-3.43,3.96-6.98,5.83-10.53
		c-0.19,1.19-0.43,2.38-0.61,3.57c-1.37,8.83-2.24,17.11-2.62,24.84c0.04,1.58,0.73,3.2,2.07,4.84c1.33,1.64,2.96,3.14,4.88,4.47
		c1.92,1.34,3.99,2.43,6.19,3.26c2.2,0.85,4.2,1.24,5.99,1.2c0.98-0.02,1.82-0.19,2.51-0.5c0.69-0.32,1.01-1.26,0.98-2.84
		c0.29-4.76,1.74-11.31,4.38-19.66c2.63-8.36,5.97-17.12,10.04-26.29c4.07-9.16,8.63-18.18,13.69-27.04
		c5.06-8.86,10.02-16.18,14.88-21.95c0.61-0.8,1.06-1.25,1.36-1.35c0.31-0.1,0.16,0.55-0.45,1.93c-2.2,4.57-4.19,9.87-5.95,15.91
		c-1.78,6.06-2.42,11.35-1.96,15.89c0.43,3.35,1.83,6.35,4.17,9c2.35,2.65,5.08,4.8,8.21,6.46c3.13,1.66,6.34,2.78,9.68,3.35
		c3.31,0.58,6.27,0.38,8.88-0.61c3.62-1.19,7.09-3.42,10.41-6.68c0.99-0.97,1.84-2.14,2.79-3.15c-0.67,4.4-1.36,8.83-1.9,13.1
		c-1.52,12.05-2.29,22.23-2.3,30.53c-0.01,1.59,0.69,3.17,2.07,4.76c1.39,1.58,3.08,2.97,5.06,4.17c1.98,1.19,4.11,2.19,6.39,2.99
		c2.27,0.81,4.3,1.21,6.08,1.23c2.19,0.02,3.33-0.57,3.44-1.76c0.11-1.18,0.17-2.27,0.18-3.26c1.18,0.99,2.76,2.09,4.74,3.3
		c1.96,1.2,3.74,1.81,5.33,1.83c5.35,0.06,11.23-2.39,17.68-7.32c6.43-4.93,12.73-11.29,18.9-19.06
		c12.53-6.26,23.52-14.25,33.01-24.05c1.22-1.26,2.33-2.62,3.49-3.93c-1.47,5.6-2.85,11.2-4.05,16.82
		c-1.89,8.74-3.23,16.95-4.06,24.65c-0.05,1.58,0.55,3.23,1.8,4.95c1.23,1.72,2.77,3.3,4.61,4.74c1.84,1.45,3.84,2.65,5.99,3.62
		c2.15,0.96,4.12,1.47,5.9,1.53c0.99,0.04,1.84-0.08,2.55-0.35c0.7-0.27,1.09-1.2,1.15-2.78c0.57-4.73,2.39-11.19,5.51-19.38
		c3.11-8.19,6.96-16.74,11.56-25.66c4.6-8.91,9.67-17.65,15.24-26.2c5.56-8.55,10.94-15.56,16.13-21.05
		c0.65-0.76,1.13-1.18,1.44-1.27c0.31-0.08,0.13,0.56-0.56,1.91c-2.47,4.43-4.76,9.61-6.88,15.54c-2.12,5.94-3.07,11.19-2.88,15.75
		c0.23,3.37,1.46,6.45,3.65,9.23c2.18,2.78,4.78,5.09,7.82,6.93c3.03,1.84,6.18,3.14,9.47,3.91c3.28,0.77,6.25,0.74,8.91-0.1
		c3.69-0.98,7.28-3,10.79-6.06c2.43-2.11,4.66-4.56,6.92-6.96c-2.99,9.8-5.7,19.51-7.78,29.04c-0.53,1.95-0.89,3.81-1.09,5.58
		c-0.21,1.77-0.56,3.63-1.08,5.58c-0.34,2.16-0.02,4.45,0.93,6.89c0.95,2.43,2.35,4.7,4.22,6.79c1.87,2.1,4.09,3.86,6.68,5.31
		c2.6,1.46,5.28,2.28,8.05,2.46c6.73,0.45,13.03-2.44,18.96-8.65c5.93-6.22,11.53-13.69,16.82-22.41c-0.23,0.38-0.36,0.72-0.38,1.01
		c-0.02,0.3-0.16,0.63-0.38,1.01c-0.34,1.96-0.69,3.81-1.02,5.57c-0.34,1.76-0.77,3.61-1.32,5.55c-0.76,4.7,0.25,9.34,2.98,13.9
		c2.74,4.57,6.68,7.06,11.82,7.47c4.17,0.34,8.5-0.99,13.03-3.99c4.54-2.99,9.03-6.93,13.46-11.8c4.44-4.87,8.75-10.39,12.92-16.57
		c0.41-0.6,0.73-1.19,1.14-1.79c-2.2,8.04-3.95,15.7-5.16,22.87c-0.14,1.57,0.35,3.26,1.5,5.04c1.13,1.79,2.57,3.46,4.33,5.01
		c1.76,1.55,3.68,2.87,5.77,3.97s4.02,1.72,5.8,1.89c0.99,0.1,1.84,0.02,2.57-0.2c0.71-0.23,1.16-1.13,1.31-2.71
		c0.51-3.32,1.77-7.47,3.76-12.45c1.99-4.96,4.47-10.33,7.46-16.1c2.98-5.75,6.32-11.74,9.98-17.92c3.67-6.18,7.53-12.15,11.6-17.88
		c4.06-5.74,8.16-11.01,12.26-15.84c4.1-4.83,8.09-8.82,11.94-11.97c-2.94,6.04-5.86,12.53-8.76,19.47
		c-2.9,6.94-5.65,14.05-8.26,21.32c-2.61,7.28-4.94,14.49-7.02,21.63c-2.07,7.13-3.83,13.81-5.28,20.02
		c-0.81,3.89,0.3,7.63,3.32,11.23c3.02,3.6,7.08,5.67,12.22,6.25c4.15,0.45,8.52-0.75,13.15-3.61c4.63-2.86,9.23-6.65,13.81-11.38
		c4.58-4.74,9.05-10.14,13.42-16.17c0.42-0.58,0.76-1.15,1.17-1.73c-2.43,7.97-4.41,15.56-5.83,22.67
		c-0.18,1.57,0.26,3.27,1.35,5.09c1.08,1.82,2.47,3.54,4.18,5.14c1.71,1.6,3.59,2.98,5.66,4.13c2.05,1.15,3.97,1.84,5.75,2.06
		c0.99,0.13,1.84,0.09,2.57-0.12c0.73-0.22,1.19-1.09,1.4-2.67c0.61-3.31,1.99-7.41,4.13-12.33c2.12-4.9,4.77-10.2,7.94-15.87
		c3.15-5.67,6.67-11.54,10.52-17.61c3.85-6.07,7.9-11.92,12.14-17.53c4.23-5.6,8.49-10.76,12.74-15.47
		c4.25-4.7,8.36-8.57,12.29-11.6c-3.11,5.95-6.22,12.35-9.34,19.2c-3.11,6.85-6.07,13.87-8.9,21.07c-2.83,7.2-5.38,14.33-7.65,21.4
		c-2.29,7.07-4.25,13.68-5.87,19.85c-0.93,3.87,0.07,7.64,2.98,11.33c2.91,3.69,6.91,5.89,12.04,6.61
		c4.13,0.57,8.54-0.48,13.26-3.21c4.71-2.71,9.43-6.37,14.15-10.97c4.72-4.6,9.35-9.85,13.91-15.76c4.55-5.9,8.81-11.8,12.79-17.69
		c3.98-5.87,7.49-11.38,10.57-16.51c3.06-5.12,5.57-9.23,7.51-12.32c0.58-1.11,0.7-2.19,0.35-3.25c-0.34-1.05-1-1.86-1.94-2.41
		c-0.96-0.54-1.96-0.7-3.03-0.48c-1.07,0.24-1.99,0.89-2.79,1.97c-2.81,4.76-6.07,10.16-9.77,16.19c-3.7,6.03-7.7,12.11-12,18.26
		c-4.3,6.15-8.89,12.01-13.77,17.59c-4.88,5.57-9.92,10.28-15.12,14.13c-1.81,1.34-3.07,1.76-3.81,1.25
		c-0.73-0.5-0.75-1.8-0.04-3.89c1.52-4.98,3.47-10.53,5.87-16.69c2.41-6.14,5-12.51,7.8-19.1c2.79-6.58,5.76-13.19,8.89-19.82
		c3.14-6.63,6.39-12.9,9.74-18.79c0.81-1.28,1.55-2.47,2.23-3.57c0.68-1.09,1.41-2.19,2.2-3.27c0.78-1.08,1.24-2.11,1.4-3.08
		c0.2-1.37-0.47-2.83-2-4.35c-1.53-1.52-3.4-3.01-5.57-4.43c-2.18-1.42-4.35-2.59-6.5-3.5c-2.16-0.92-3.74-1.44-4.76-1.6
		c-2.44-0.35-4.48,0.06-6.09,1.23c-4.08,2.41-8.34,5.7-12.75,9.88c-4.4,4.18-8.82,8.86-13.23,14.05
		c-4.41,5.19-8.67,10.6-12.81,16.23c-4.13,5.63-7.85,11.13-11.2,16.47c3.04-7.77,6.36-15.52,9.94-23.22
		c3.58-7.69,7.27-14.88,11.06-21.56c0.81-1.48,1.84-2.99,3.08-4.52c1.25-1.52,1.13-2.99-0.34-4.39c-0.92-0.92-2.07-1.97-3.46-3.15
		c-1.4-1.19-2.99-2.35-4.82-3.49c-1.82-1.14-3.66-2.13-5.52-2.97c-1.85-0.84-3.5-1.35-4.93-1.54c-1.84-0.24-3.42,0.86-4.77,3.27
		c-4.16,6.65-8.13,13.97-11.91,21.96c-2.28,4.84-4.3,9.93-6.41,14.94c-0.69,1.2-1.32,2.31-2.04,3.58
		c-3.53,6.14-7.33,12.35-11.45,18.62c-4.11,6.28-8.52,12.27-13.22,17.99c-4.72,5.71-9.6,10.57-14.68,14.57
		c-1.77,1.4-3.02,1.85-3.77,1.36c-0.75-0.48-0.8-1.78-0.16-3.89c1.36-5.02,3.15-10.65,5.38-16.86c2.22-6.21,4.62-12.66,7.21-19.32
		c2.59-6.66,5.36-13.36,8.29-20.09c2.94-6.72,5.99-13.07,9.17-19.07c0.77-1.3,1.48-2.51,2.13-3.63c0.65-1.11,1.34-2.23,2.1-3.33
		c0.75-1.11,1.18-2.15,1.3-3.13c0.17-1.37-0.54-2.81-2.12-4.29c-1.58-1.48-3.49-2.89-5.7-4.25c-2.22-1.35-4.42-2.46-6.59-3.3
		c-2.19-0.85-3.79-1.33-4.8-1.44c-2.45-0.28-4.47,0.19-6.05,1.4c-4.01,2.53-8.16,5.95-12.44,10.26c-4.28,4.31-8.54,9.12-12.79,14.44
		c-4.25,5.32-8.36,10.85-12.31,16.61c-3.96,5.75-7.52,11.36-10.69,16.8c2.81-7.86,5.89-15.7,9.24-23.51
		c3.35-7.81,6.82-15.1,10.4-21.87c0.77-1.51,1.76-3.05,2.95-4.61c1.2-1.56,1.03-3.02-0.46-4.37c-0.95-0.89-2.12-1.91-3.55-3.06
		c-1.44-1.13-3.07-2.25-4.92-3.34c-1.84-1.09-3.71-2.01-5.6-2.8c-1.88-0.79-3.54-1.25-4.97-1.39c-1.84-0.18-3.39,0.96-4.67,3.41
		c-3.96,6.77-7.71,14.21-11.24,22.31c-2.13,4.88-3.98,10-5.92,15.04c-0.66,1.25-1.27,2.41-1.97,3.72
		c-3.33,6.24-6.96,12.56-10.87,18.95c-3.93,6.39-8.15,12.52-12.69,18.37c-4.53,5.85-9.18,10.86-13.93,15.03
		c-1.49,1.07-2.72,1.46-3.7,1.18c-0.98-0.27-1.19-1.48-0.61-3.62c1.44-5.24,3.18-11.19,5.25-17.86s4.4-13.57,7.04-20.69
		c2.63-7.11,5.43-14.22,8.39-21.3c2.95-7.09,6.05-13.76,9.28-20.02c0.55-1.53,1.4-3.1,2.57-4.68c1.17-1.58,1-3.05-0.53-4.37
		c-0.95-0.87-2.16-1.87-3.6-3c-1.44-1.12-3.05-2.2-4.81-3.24c-1.76-1.05-3.59-1.95-5.48-2.71c-1.9-0.76-3.56-1.2-4.99-1.32
		c-1.84-0.16-3.49,1.01-4.92,3.46c-1.69,3.03-3.29,6.18-4.78,9.42c-1.5,3.26-3,6.61-4.5,10.06c-1.01,2.3-2.51,5.75-4.5,10.35
		c-2,4.6-4.34,9.73-7.01,15.36c-2.67,5.64-5.55,11.48-8.63,17.49c-3.07,6.01-6.14,11.44-9.22,16.26c-3.06,4.84-6.04,8.79-8.96,11.85
		c-2.92,3.06-5.56,4.51-7.95,4.35c-1.6-0.11-2.77-1.13-3.54-3.06c-0.77-1.93-0.65-4.55,0.38-7.85c1.35-5.25,2.99-10.98,4.92-17.2
		c1.94-6.2,4.04-12.51,6.3-18.88c2.27-6.38,4.7-12.7,7.29-18.95c2.59-6.26,5.2-12.16,7.87-17.72c0.73-1.53,1.66-3.1,2.81-4.7
		c1.13-1.6,0.94-3.06-0.61-4.36c-0.97-0.86-2.17-1.84-3.63-2.95c-1.47-1.09-3.08-2.15-4.86-3.18c-1.78-1.01-3.62-1.88-5.53-2.62
		c-1.91-0.73-3.58-1.13-5.01-1.23c-1.84-0.13-3.46,1.05-4.87,3.53c-4.76,8.94-9.16,18.81-13.22,29.54
		c-0.68,0.99-1.32,1.93-2.08,3.05c-2.47,3.61-5.12,7.1-7.97,10.49c-2.84,3.39-5.85,6.29-9.02,8.67c-3.18,2.39-6.38,3.49-9.59,3.31
		c-1.62-0.09-2.98-1.01-4.09-2.75c-1.12-1.74-1.48-4.48-1.07-8.22c0.67-5.11,2.46-10.85,5.35-17.23c2.9-6.38,7.13-11.58,12.68-15.62
		c1.7-1.09,3-2.35,3.91-3.78c0.9-1.43,0.4-3.19-1.53-5.29c-1.15-1.26-2.58-2.38-4.27-3.37c-1.68-0.99-3.48-1.88-5.39-2.68
		c-1.92-0.8-3.68-1.44-5.3-1.93c-1.61-0.48-2.84-0.75-3.65-0.79c-2.46-0.14-4.45,0.46-5.95,1.76c-3.85,2.76-7.78,6.43-11.79,10.98
		c-4.01,4.56-7.98,9.62-11.9,15.18c-3.93,5.56-7.69,11.33-11.29,17.31c-3.6,5.98-6.81,11.79-9.66,17.41
		c2.33-8.01,4.94-16.02,7.81-24.01c2.88-7.99,5.9-15.48,9.07-22.47c0.68-1.55,1.56-3.14,2.67-4.77c1.1-1.64,0.85-3.09-0.73-4.34
		c-1-0.83-2.23-1.77-3.73-2.84c-1.49-1.05-3.18-2.06-5.1-3.03c-1.91-0.97-3.82-1.79-5.75-2.46c-1.92-0.67-3.61-1.04-5.04-1.1
		c-1.84-0.06-3.33,1.17-4.45,3.69c-3.54,6.99-6.85,14.64-9.89,22.94c-1.13,3.1-2.04,6.37-3.1,9.52
		c-3.81,7.19-8.16,13.54-13.04,19.03c-6.59,7.41-13.46,13.61-20.61,18.56c5.03-8.58,9.21-17.41,12.51-26.52
		c3.29-9.1,5.08-17.8,5.32-26.1c0.07-2.37-0.57-5.11-1.9-8.21c-1.34-3.1-3.16-6.03-5.43-8.75c-2.29-2.73-4.9-5.08-7.82-7.02
		c-2.94-1.96-6.05-2.97-9.34-3.04c-3.89-0.09-7.69,1.36-11.33,4.37c-3.65,2.99-7.05,6.64-10.18,10.93
		c-3.14,4.1-5.95,8.36-8.47,12.78c-2.51,4.41-4.9,8.88-7.18,13.4c2.13-9.07,4.49-18.23,7.07-27.49c2.59-9.26,5.24-17.92,7.94-25.99
		c2.71-8.06,5.41-15.43,8.13-22.11c2.71-6.67,5.38-12.05,7.96-16.15c0.43-0.98,0.97-1.81,1.62-2.49c0.64-0.68,1.38-1.5,2.24-2.47
		c0.42-0.38,0.64-0.88,0.65-1.47c0.02-1.18-1.09-2.5-3.37-3.93c-2.27-1.43-4.86-2.77-7.77-4.01c-2.91-1.25-5.93-2.33-9.05-3.27
		c-3.14-0.94-5.43-1.42-6.9-1.44c-2.3-0.03-5.02,3.19-8.12,9.68c-3.1,6.49-6.38,14.91-9.78,25.26
		c-3.42,10.34-6.76,22.03-10.02,35.07c-3.26,13.02-6.18,26.16-8.77,39.39c-0.58,2.93-1.02,5.72-1.54,8.59
		c-0.69,0.98-1.27,2-1.99,2.97c-2.64,3.54-5.48,6.61-8.5,9.18c-3.03,2.57-6.17,3.86-9.39,3.86c-1.61,0.01-3.02-0.83-4.25-2.51
		c-1.21-1.68-1.73-4.39-1.55-8.14c0.38-5.15,1.82-10.98,4.35-17.52c2.51-6.54,6.43-11.98,11.74-16.32c1.64-1.19,2.88-2.52,3.69-4.01
		c0.83-1.48,0.22-3.21-1.83-5.19c-1.22-1.19-2.71-2.23-4.47-3.11c-1.73-0.89-3.58-1.68-5.53-2.37
		C850.01,550.27,848.21,549.73,846.57,549.33z M522.02,618.91c0.99-5.46,2.36-10.66,4.13-15.59c1.76-4.95,3.84-9.47,6.22-13.56
		c2.39-4.09,5-7.37,7.85-9.82c2.08-1.97,4.23-2.63,6.45-1.92c2.23,0.69,3.47,2.62,3.75,5.76c0.53,5.91,0.02,11.81-1.48,17.7
		c-1.51,5.89-3.73,11.2-6.63,15.94c-2.92,4.74-6.3,8.67-10.15,11.83c-3.85,3.15-7.77,4.92-11.79,5.32
		C520.49,629.59,521.03,624.37,522.02,618.91z M642.52,596.86c-1.09,6.9-2.55,13.58-4.35,20.04c-1.81,6.46-3.93,12.54-6.37,18.24
		c-2.44,5.71-4.92,10.53-7.45,14.48c-3.5,1.43-6.88,2.55-10.13,3.38c-3.24,0.83-6.24,1.55-9,2.16c0.71-9.17,2.2-18.2,4.48-27.09
		c2.27-8.88,5.24-17.62,8.91-26.2c4.2-9.81,9.05-19.35,14.6-28.63c2.59-4.13,5.07-5.72,7.38-4.78c2.31,0.95,3.5,3.7,3.58,8.25
		C644.16,583.24,643.61,589.95,642.52,596.86z M707.49,605.72c1.28-5.4,2.93-10.52,4.96-15.35c2.03-4.84,4.34-9.24,6.93-13.2
		c2.59-3.96,5.38-7.09,8.36-9.38c2.18-1.86,4.36-2.39,6.54-1.57c2.17,0.81,3.31,2.8,3.42,5.95c0.2,5.94-0.61,11.8-2.43,17.59
		c-1.83,5.81-4.32,11-7.49,15.56c-3.16,4.57-6.75,8.32-10.76,11.26c-4.01,2.94-8.03,4.49-12.05,4.68
		C705.37,616.3,706.2,611.11,707.49,605.72z M894.02,619.18c3-8.66,6.69-17.12,11.05-25.36c4.99-9.43,10.62-18.53,16.91-27.32
		c2.94-3.89,5.51-5.28,7.75-4.14c2.22,1.13,3.18,3.97,2.89,8.51c-0.55,6.51-1.66,13.17-3.32,19.95c-1.66,6.78-3.66,13.33-6,19.61
		c-2.35,6.28-4.96,12.17-7.86,17.65c-2.91,5.49-5.77,10.1-8.62,13.81c-3.62,1.13-7.07,1.99-10.37,2.54c-3.3,0.56-6.35,1.03-9.14,1.4
		C888.78,636.74,891,627.85,894.02,619.18z"/>
	<polygon points="695.16,768.1 692.09,816.68 698.22,816.68 695.24,767.8 	"/>
	<path d="M1531.41,495.41c13.57-19.21,25.3-37.57,35.4-55.1c0.05-2.5-0.09-5.07-0.37-7.69c0.14-7.72-0.43-19.29-2.73-32.59
		c1.1-1.04,1.7-1.73,1.59-1.87c-0.12-0.17-0.8,0.18-1.8,0.77c-0.56-3.1-1.19-6.28-1.95-9.54c-0.89-2.99-3.41-16.13-4.49-17.97
		c-7.34-25.76-21.09-56.58-46.23-86.17c-12.18-15.08-28.04-28.86-46.16-41.57c-18.27-12.64-39.92-22.59-63.65-29.81
		c-48.75-14.32-102.23-10.65-145.28,6.06c-43.38,16.47-75.92,43.95-95.8,67.93c-4.46,4.86-8.56,10.81-12.86,16.4
		c-13.3,18.05-20.69,34.79-23.04,42.15c-10.85-7.17-22.6-14.92-34.85-21.38c-27.48-14.24-59.1-24.18-92.45-25.52
		c-8.28-0.43-16.69-0.35-24.84-0.1c-4.01,0.1-8.2,0.25-11.39,0.01c-2.95-0.17-4.95-1.04-7.95-2.88c-5.63-3.66-11.19-9.4-16.54-15.43
		c-5.43-6.34-10.89-12.73-16.4-19.15c-2.83-3.23-5.96-6.64-8.95-9.69l-2.31-2.35l-1.29-1.27l-0.91-0.83
		c-0.33-0.26-0.24-0.23-0.93-0.73c-0.39-0.27-0.8-0.53-1.22-0.74c-0.44-1.91-11-0.17-8.87,1.45c-0.98,2.01-0.27,0.57-0.49,1.01v0.02
		l0.01,0.02l0.02,0.04l0.03,0.08c0.01,0.05,0.02,0.13-0.05,0.14c-0.13,0.02-0.25-0.06-0.34-0.1l-1.49-0.95l-1.76-1.16l-2.17-1.84
		c-1.45-1.19-2.91-2.43-4.35-3.93c-11.6-11.4-22.33-25.34-32.85-39.31c-10.49-14.09-20.75-28.69-30.92-43.6
		c-5.05-7.49-10.14-15.02-15.23-22.59l-8.05-11.68l-2.51-3.14c-0.88-1.05-1.53-2.02-3.02-3.3c-2.16-2.46-6.77-4.65-7.69-5.07
		c-2.24-1.21-4.7-3.38-7.25-5.59c-2.71-2.66-4.7-4.78-7.96-7.82c-3.36-3.22-7.41-6.32-12.47-8.09c-4.94-2.15-10.68-2.02-15.66-1.29
		c-9.91,2.16-16.86,7.31-22.97,11.93c-2.83,2.31-5.63,4.59-8.42,6.86c-2.44,2.1-5.56,4.15-5.93,4.18
		c-14.59,4.89-26.3,10.61-38.58,15.16c-6.02,2.27-11.95,4.37-17.61,5.92c-2.82,0.77-5.59,1.38-7.96,1.67
		c-1.09,0.08-2.43,0.28-2.88,0.12c-0.57,0.04-0.44,0.03-0.52,0.01c-0.51-0.6-1.93-1.56-2.94-2.66c-1.12-1.26-2.24-2.51-3.34-3.74
		c-2.12-2.78-4.22-5.42-6.12-8.28c-2.31-2.82-11.28-18.05-17.22-28.67c-3.62,5.8-7.19,12.43-10.86,17.04
		c-0.89,1.13-1.93,2.44-2.86,3.38l-1.33,1.35c-0.92,0.85-1.83,1.72-2.79,2.44c-3.77,3.12-7.88,5.04-11.88,5.75
		c-1.01,0.25-2.02,0.16-3.02,0.3l-2.45,0.08c-0.83,0.02-1.56,0.02-3.03,0.27c-5.06,0.32-10.69,2.98-12.68,7.96
		c-1.09,2.71-1.53,4.65-1.7,4.81c-0.23,0.53-0.55,0.99-1.01,1.54c-1.06,1.09-2.55,2.41-4.59,3.52c-1.91,1.24-4.05,2.07-6.53,3.31
		c-2.69,1.32-5.13,2.31-7.96,3.88c-2.79,1.31-6.58,4.68-5.79,3.93l-2.95,0.81l-3.68,0.93c-5.11,1.23-10.15,2.44-15.14,3.64
		c-2.55,0.65-4.88,1.07-7.58,1.91c-2.71,0.86-5.41,1.72-8.09,2.57c-10.36,4.21-19.27,10.18-27.1,16.72
		c-7.65,6.72-14.29,13.95-20.23,21.36c-5.8,7.49-10.99,15.09-15.6,22.75c-2.29,3.84-4.46,7.69-6.51,11.54l-2.95,5.81l-1.41,2.93
		l-0.77,1.74c-3.01,2.77-5.97,5.51-8.89,8.2c-3.1,3.08-6.63,5.47-9.86,8.18c-6.24,5.25-13.91,10.3-19.77,14.73
		c-0.56,0.25-1.1,1.27-1.7,0.73l-3.51-1.41c-3.7-1.52-7.37-3.03-10.97-4.51c-7.22-2.97-14.25-5.85-21.13-8.67
		c-6.87-2.81-13.58-5.55-20.15-8.24l-6.66-2.75l-3.74-1.55c-0.7-0.59-1.08,0.2-1.52,0.71l-1.32,1.56c-2.75,3.3-5.47,6.58-8.16,9.81
		c-4.33,5.24-8.57,10.37-12.75,15.41c-1.92,2.34-3.84,4.66-5.74,6.96c-2.55,1.57-5.09,3.1-7.61,4.64c-0.62,0.38-3.38,2.06-7.23,4.38
		c-0.48,0.29-0.97,0.59-1.48,0.9c-0.48,0.24-1.6,0.99-2.14,1.52c-0.97,0.81-1.99,1.66-3.03,2.54c-2.1,1.76-4.31,3.61-6.52,5.47
		c-8.87,7.41-17.72,14.84-18.86,15.79c-31.92,26.45-60.77,50.43-81.19,68.41c-4.87,4.28-9.27,8.16-13.15,11.56
		c-1.51-0.12-3.04-0.56-4.74-0.86l-33.31-19.09c13.79,30.43,41.01,74.17,72.28,117.84l-6.88,0.95l35.65,273.51l326.79,56.77
		c81.24,59.49,153.82,107.62,187.85,128.03c29.91,17.96,52.55,33.43,70.72,45.86c30.32,20.72,47.01,32.15,64.05,32.15
		c17.05,0,33.76-11.43,64.07-32.15c18.19-12.43,40.82-27.9,70.74-45.86c33.65-20.18,106.71-69.5,188.85-130.39l322.33-56
		c3.34,0.4,5.25,0.64,5.51,0.67l9,1.1l35.47-273.64l-8.9-1.28C1538.08,496.35,1535.65,496,1531.41,495.41z M1150.1,309.09
		c2.44-2.95,6.14-7.41,9.57-11.56c3.73-3.88,7.18-7.48,8.75-9.11c20.43-20.65,51.04-42.45,90.77-55.34
		c39.44-12.87,88.3-16.22,136.88-2.03c23.85,7.05,44.48,17.16,62.24,28.44c8.4,6.3,17.05,11.62,24.05,18.34
		c3.6,3.22,7.29,6.23,10.65,9.43c3.2,3.36,6.33,6.65,9.39,9.87c24.23,26.18,38.67,52.9,47.62,77.13c0.47,0.48,2.04,5.76,3.34,10.22
		c-4.21,9.38-8.48,19.11-13.08,29.2c-2.49,1.47-5.12,2.98-7.98,4.56c-5.32,2.94-11.41,5.78-18.17,8.25
		c-6.64,2.28-14.71,4.59-21.94,2.24c-3.21-1.07-7.23-4.14-11.67-5.75c-4.46-1.77-9.89-2.2-14.84-0.9
		c-9.9,2.73-17.96,8.55-27.3,12.54c-4.88,2.15-11.2,4.84-18.03,6.33c-3.43,0.76-7.02,0.99-10.53,0.69
		c-3.52-0.41-6.89-1.49-10.17-3.1c-3.3-1.53-6.54-3.69-10.71-4.83c-4.26-1.15-8.87-0.02-11.89,1.71c-4.8,2.62-9.3,1.77-12.17,1.29
		c-4.62-1-9.31-3.03-14.01-5.36c-2.38-1.21-4.77-2.43-7.19-3.67l-3.77-1.88c-0.62-0.32-1.34-0.6-2.02-0.9
		c-0.85-0.37-1.74-0.73-2.67-0.96c-3.54-1.32-7.92-1.01-10.3,2.16c-0.57,0.77-1.2,1.58-1.64,2.27l-0.73,1.08l-0.46,0.47
		c-0.62,0.65-1.24,1.09-2.15,1.33c-3.51,1.3-9.43,0.03-14.62-1.49c-21.56-6.78-43.28-18.9-65.81-31.23
		c-5.75-3.05-11.59-6.13-17.48-9.25c-2.95-1.56-5.91-3.13-8.89-4.7c-3.12-1.38-6.26-2.78-9.42-4.17c-3.17-1.39-6.35-2.78-9.55-4.18
		c-3.28-1.29-6.85-2.2-10.29-3.32c-3.46-1.25-7.06-1.76-10.67-2.39c-3.73-0.66-6.46-1.17-9.7-1.88c-2.95-1.15-5.92-2.31-8.91-3.47
		c-2.98-1.66-5.97-3.34-8.98-5.01c-6.07-3.06-11.93-7.55-17.97-11.36c-0.61-0.4-1.25-0.82-1.86-1.23
		C1129.44,341.56,1136.94,326.56,1150.1,309.09z M566.16,145.7c1.22-1.64,2.32-3.83,2.9-5.46c0.52-1.54,0.33-0.99,0.49-1.34
		c0.35-0.33,0.29-0.29,1.58-0.35c1.79-0.09,6.1,0.06,9.52-0.74c7.17-1.34,13.5-4.84,18.71-9.07c1.36-1.03,2.54-2.2,3.79-3.31
		l1.64-1.64c0.19-0.18,0.36-0.38,0.5-0.56c0.15,0.07,0.29,0.53,0.41,0.73l0.09,0.18l1.14,1.82c0.95,1.56,2,3.09,3.06,4.64
		c2.02,3.12,4.43,6.23,6.85,9.42c1.39,1.58,2.79,3.18,4.21,4.79c1.68,1.72,3.38,3.08,5.8,5.12c2.79,1.21,5.78,2.62,8.38,2.62
		c2.73,0.34,4.39-0.06,6.54-0.16c3.87-0.49,7.38-1.29,10.79-2.2c6.78-1.85,13.25-4.13,19.7-6.54c6.43-2.41,12.79-5.01,19.17-7.59
		c3.14-1.26,6.3-2.53,9.49-3.8l4.57-1.7l1.91-0.6l1.66-0.55l2.23-0.88c4.88-2.47,7.55-4.92,10.52-7.22
		c2.79-2.27,5.46-4.52,8.08-6.49c5.17-3.89,10.62-7.31,15.02-7.72c4.25-0.53,7.96,0.82,12.1,5.04c5.34,5,10.14,11.1,18.88,16.06
		c0.93,0.48,2.75,1.32,2.68,1.37c0.34,0.11,0.69,0.4,1.04,0.81l0.57,0.49l0.82,1.01l1.68,2.08c2.32,3.17,4.67,6.51,7.06,10.08
		l14.48,21.39c9.75,14.23,19.67,28.38,30.02,42.26c10.4,13.87,21.01,27.53,33.19,40.49c3.18,3.2,6.19,6.41,9.96,9.45
		c1.89,1.52,3.46,3.02,6.14,4.58l3.7,2.21c1.68,0.74,3.68,1.8,5.51,2.37c3.51,1.32,6.86,1.76,9.76,1.05
		c6.18,6.41,12,13.46,18.23,20.49c-14.68-7.64-31.2-15.65-38.75-19.71c-16.9-9.11-40.76-29.22-54.53-49.09
		c-13.79-19.88-37.93-67.12-55.91-84.55c-17.98-17.42-23.96-18.67-29.23-11.95c-5.27,6.73-2.15,15.84-2.15,27.48
		c0,11.64,54.91,67.01,54.91,82.55c0,15.54-21.1-20.67-42.21-49.59c-21.12-28.91-19.06-7.6-12.71,16.77
		c6.35,24.37-0.1,21.76-17,13.59c-16.91-8.16-15.83-24.65-35.97-35.99c-20.14-11.36,6.44,17.05,4.3,32.24
		c-2.14,15.18-34.89-28.41-59.22-45.39c-24.34-17-13.68-19.38-30.69-27.63c-17-8.24-2.05,10.49,4.3,27.04
		c6.35,16.55,16.91,27.83,30.69,43.96c13.78,16.12,9.28,21.84-10.75,6.93c-20.04-14.9-30.58-36.71-51.79-60.15
		c-4.42-4.88-7.26-7.08-9.08-7.65C565.34,146.71,565.76,146.25,566.16,145.7z M158.64,435.66c-2.28-3.55-4.35-7.11-6.46-10.67
		c12.68-5.2,21.34-0.95,37.21-5.85c17.26-5.35-27.88-2.32-43.63-5.52c-2.03-3.78-4.09-7.53-5.95-11.4
		c4.33-3.46,9.23-7.36,14.65-11.68c21.09-16.98,50.18-40.4,82.32-66.26c3.39-2.73,12.32-9.88,20.96-16.8
		c2.16-1.72,4.3-3.44,6.34-5.06c2.26-1.92,3.2-2.54,5.47-3.76c3.85-2.2,6.8-3.89,8.05-4.61l4.05-2.31l2.12-1.22
		c0.97-0.45,1.81-1.07,2.45-1.99c2.09-2.4,4.21-4.83,6.34-7.28c4.22-4.83,8.52-9.75,12.92-14.79c1.75-1.99,3.51-3.99,5.29-6.02
		c0.5-1.17,1.52-0.26,2.38,0.06l3.47,1.55c6.4,2.81,12.96,5.7,19.69,8.66c6.73,2.96,13.62,5.99,20.72,9.11
		c3.54,1.56,7.14,3.14,10.78,4.74c2.38,1.04,4.77,2.08,7.18,3.14l2.19,0.95c0.73,0.3,1.31-0.69,1.97-0.97l3.87-2.71
		c14.37-9.87,27.6-18.96,42.85-33.26l1.82-3.81l1.43-2.77l3.02-5.55c2.08-3.7,4.32-7.37,6.62-11.05c4.68-7.31,9.9-14.48,15.63-21.4
		c11.51-13.57,25.7-26.61,43-32.43c2.21-0.61,4.24-1.32,6.61-1.91l7.52-1.64c5.07-1.13,10.18-2.27,15.34-3.41
		c2.83-0.93,4.95-0.64,9.88-3.42l1.81-1.44c0.33-0.34,0.8-0.58,1.25-0.81c0.98-0.5,1.64-1.01,2.86-1.53l7.02-3.18
		c2.73-1.19,5.48-2.57,8.27-4.27c1.4-0.97,2.85-1.96,4.26-3.16c-0.17,5.7,4.37,17.65,4.37,17.65s26.56,33.79-3.14,19.23
		c-29.68-14.56-71.74-8.88-89.7,7.66s62.33-2.1,83.45,20.23c21.12,22.35,6.66,17.09-27.55,20.69c-34.22,3.58-40.21,0.24-20.14,20.53
		c20.09,20.29-22.85,2.03-46.31,8.82c-23.47,6.78-35.81,17.5-47.49,17.21c-11.68-0.3-15.93,1.73-32.83,10.99
		c-16.91,9.26-17,2.6-29.7-0.72c-12.71-3.34-41.24-8.11-47.5-14.03c-11.72,6.94,9.48,34.19,31.67,46.85
		c22.19,12.64,18.08,20.88,31.85,27.47c13.78,6.58,61.12-14.72,86.58-30.07c25.46-15.35,116.18-57.05,144.82-58.27
		c28.63-1.24,62.26-13.66,84.44-20.39c22.19-6.72,49.74,9.47,86.78,24.87c33.42,13.9,136.31,33.91,166.99,37.57
		c3.2,2.54,6.74,4.96,11.09,6.78c5.2,2.28,11.26,2.37,15.35,2.25c8.69-0.25,16.56-0.76,24.6-0.65c31.89-0.07,62.77,7.8,90.41,21.2
		c13.98,6.76,26.42,14.68,39.72,23.13c6.73,4.03,12.79,8.54,19.97,12.03c3.5,1.82,6.97,3.63,10.44,5.44
		c3.9,1.33,7.74,2.98,11.68,3.94c8.4,1.68,14.74,1.87,21.45,4.21c6.66,1.48,13.15,4.87,19.64,7.35
		c12.92,5.59,25.22,12.32,37.53,18.4c12.3,6.38,24.34,12.59,36.56,17.88c6.11,2.64,12.17,5.21,18.44,7.27
		c6.23,2.11,12.53,4.01,19.7,4.27c1.71,0.21,3.77-0.25,5.66-0.49c2.07-0.62,4.05-1.51,5.79-3c0.71-0.7,1.61-1.71,2.02-2.27
		l0.85-1.32c0.41-0.7,0.98-1.49,1.84-1.57c1.92-0.08,2.67,0.38,5.67,1.64c2.63,1.28,5.26,2.54,7.85,3.78
		c5.31,2.58,10.78,5.08,16.78,6.5c2.95,0.78,6.17,1.07,9.4,0.87c1.6-0.07,3.26-0.55,4.84-0.92l4.25-1.89
		c3.46-1.86,6.47-1.92,10.49-0.02c3.95,1.8,8.64,4.52,13.91,5.68c10.75,2.5,21.44-1.12,30.46-4.85c9.76-3.95,18.52-9.51,26.84-13.29
		c4.17-1.84,8.3-2.74,12.31-2.18c4.01,0.54,7.89,2.25,11.44,4.44c1.93,0.94,4.48,2.2,6.7,2.71c2.32,0.2,4.68,0.86,6.86,0.48
		c4.45-0.16,8.5-1.21,12.31-2.37c7.61-2.35,14.02-5.78,19.81-8.89c2.27-1.28,4.35-2.55,6.39-3.81c-4.41,9.55-9.26,19.46-14.52,29.57
		c-8.01-4.17-12.32-6.97-23.96-8.44c-19.94-2.54-18.95-12.58-28.33-1.88c-9.39,10.69-20.03,8.75-28.54,14.02
		c-8.5,5.28-22.18,9.03,3.12,9.82c25.32,0.8,71.74,0.73,51.79,5.51c-11.6,2.78-34.38,11.04-53.53,16.4
		c-14.59-1.81-30.49-3.76-47.63-5.79c-16.25-5.03-35.01-9.49-57.69-12.19c-45.43-5.41-77.17-29.62-122.73-48
		c-45.57-18.38-53.05-26.08-96.35-51.17c-43.32-25.11-33.81-16.2-18.95,3.61c14.85,19.81-21.1-3.69-64.5-28.78
		c-43.4-25.09-66.55-19.87-99.28-26.45c-32.74-6.58-50.72,0.21-82.48-2.03c-31.77-2.24-66.54-14.89-115.11-18.36
		c-48.57-3.47-44.47,4.13-77.2,13.45c-32.75,9.33-65.67,10.98-119.62,26.6c0,0,24.32,4.13,36.95,1.74
		c12.61-2.39,65.55-1.95,77.19-5.36c11.64-3.4,27.56-18.79,42.42-17.92c14.85,0.87,32.73,13.15,70.75,3.18
		c38.02-9.98,55,13.89,74.08,18.52c19.04,4.61,47.58,14.09,62.34,25.3c14.76,11.2-0.88,6.21-55.9-8.97
		c-55-15.18-55.96-18.43-118.43-23.85c-62.47-5.43-33.79,2.74-64.48,19.66c-30.7,16.92-30.77,3.67-65.68,5.92
		c-34.89,2.24-49.43,24.29-49.43,24.29s13.81,19.37,77.2,15.75c63.39-3.62,70.54,2.53,144.63,18.36
		c49.82,10.65,64.74,17.55,76.88,27.13c-186.48,0.12-467.44,31.77-600.56,48.17c3.46-13.22,1.64-31.26-19.65-38
		C212.6,443.06,177.94,439.68,158.64,435.66z M1200.27,457.51c-11.49-1.05-23.09-2.08-34.79-3.09
		c-14.65-6.26-25.69-9.83-53.22-19.38c-41.28-14.33-59.33-13.23-87.96-36.3c-28.63-23.06-51.5-27.97-55.7-37.59
		c-4.21-9.61,25.2,0.72,25.2,0.72c55.9,22.71,67.62,27.41,93.03,41.36c25.43,13.95,64.4,12.29,86.58,29.5
		C1182.53,439.77,1193.19,449.54,1200.27,457.51z M666.59,757.72c0,1.64-0.38,2.88-1.17,3.7c-0.77,0.83-1.85,1.24-3.24,1.24h-4.41
		v74.28c0,1.4-0.69,2.09-2.1,2.09h-5.52c-0.75,0-1.28-0.16-1.57-0.49c-0.29-0.32-0.45-0.86-0.45-1.6v-74.28h-4.78
		c-2.94,0-4.41-1.64-4.41-4.93v-1.42c0-1.3,0.57-1.94,1.72-1.94h24.21c1.15,0,1.72,0.64,1.72,1.94V757.72z M708.99,838.65
		c-0.2,0.26-0.65,0.38-1.35,0.38h-4.11c-1,0-1.92-0.33-2.77-0.97c-0.85-0.65-1.29-1.52-1.34-2.62l-0.75-11.37h-7.02l-0.67,11.37
		c-0.1,1.09-0.56,1.96-1.38,2.62c-0.82,0.64-1.73,0.97-2.73,0.97h-4.11c-0.7,0-1.15-0.12-1.34-0.38c-0.21-0.25-0.28-0.69-0.22-1.34
		l7.39-80.86c0.1-0.75,0.32-1.29,0.64-1.61c0.32-0.32,0.86-0.48,1.61-0.48h8.74c1.4,0,2.16,0.69,2.31,2.09l7.25,80.86
		C709.23,837.95,709.19,838.4,708.99,838.65z M758.64,837.23c0,0.65-0.13,1.12-0.37,1.39c-0.26,0.27-0.73,0.41-1.42,0.41h-3.96
		c-0.7,0-1.28-0.16-1.72-0.49c-0.45-0.32-0.85-0.75-1.2-1.27c-0.35-0.52-0.62-1.13-0.82-1.83c-0.2-0.7-0.38-1.4-0.52-2.09
		l-9.64-48.95l1.72,50.82c0.1,1.14-0.25,2.06-1.05,2.76c-0.8,0.7-1.75,1.05-2.84,1.05h-3.96c-0.7,0-1.17-0.14-1.42-0.41
		c-0.26-0.27-0.38-0.73-0.38-1.39v-81.16c0-0.65,0.1-1.09,0.3-1.35c0.21-0.25,0.67-0.37,1.42-0.37h4.18c1.01,0,1.86,0.53,2.59,1.6
		c0.72,1.07,1.28,2.55,1.68,4.44l9.5,48.35l-1.72-50.66c-0.1-1.1,0.26-1.99,1.05-2.7c0.79-0.69,1.69-1.04,2.68-1.04h4.19
		c0.74,0,1.22,0.12,1.42,0.37c0.2,0.26,0.3,0.7,0.3,1.35V837.23z M804.48,837.08c0,1.29-0.52,1.94-1.56,1.94h-18.08
		c-1.05,0-1.93-0.31-2.65-0.93c-0.73-0.62-0.97-1.51-0.72-2.65l11.37-72.79h-6.8c-1.3,0-2.3-0.41-2.99-1.24
		c-0.69-0.81-1.05-2.05-1.05-3.7v-1.42c0-1.3,0.53-1.94,1.56-1.94h18.31c0.85,0,1.4,0.14,1.64,0.45c0.26,0.3,0.34,0.85,0.23,1.64
		l-12.26,74.2h8.9c2.73,0,4.1,1.68,4.1,5.01V837.08z M867.44,837.23c0,1.2-0.57,1.8-1.72,1.8h-3.96c-1.1,0-2.01-0.34-2.76-1.05
		c-0.75-0.7-1.13-1.62-1.13-2.76l1.5-47.84l-0.45-9.94l-6.5,59.49c-0.05,1.4-0.81,2.09-2.31,2.09h-5.68c-1.39,0-2.16-0.69-2.31-2.09
		l-6.5-59.49l-0.38,9.94l1.5,47.84c0,1.14-0.38,2.06-1.12,2.76c-0.75,0.7-1.68,1.05-2.77,1.05h-3.97c-0.69,0-1.17-0.14-1.41-0.41
		c-0.25-0.27-0.38-0.73-0.38-1.39v-81.16c0-0.69,0.1-1.16,0.3-1.38c0.19-0.22,0.67-0.34,1.42-0.34h8.06c1.01,0,1.92,0.32,2.73,0.97
		c0.83,0.64,1.28,1.52,1.39,2.61l6.27,64.19l6.28-64.19c0.1-0.9,0.4-1.58,0.89-2.05c0.49-0.48,1.12-0.83,1.87-1.05
		c0.75-0.22,1.56-0.36,2.47-0.41c0.89-0.05,1.76-0.07,2.62-0.07h4.41c0.69,0,1.15,0.11,1.34,0.34c0.19,0.22,0.3,0.69,0.3,1.38
		V837.23z M920.07,828.48c0,1.45-0.29,2.9-0.85,4.34c-0.57,1.44-1.44,2.73-2.58,3.85c-1.15,1.12-2.59,2.03-4.3,2.73
		c-1.72,0.69-3.75,1.05-6.09,1.05c-2.24,0-4.24-0.33-5.98-0.97c-1.75-0.65-3.22-1.53-4.41-2.65c-1.2-1.13-2.1-2.39-2.72-3.81
		c-0.63-1.41-0.94-2.93-0.94-4.52v-72.41c0-0.69,0.12-1.17,0.34-1.42c0.22-0.25,0.68-0.38,1.38-0.38h4.11c1,0,1.88,0.35,2.65,1.05
		c0.77,0.69,1.16,1.56,1.16,2.61v70.25c0,0.85,0.31,1.68,0.93,2.51s1.73,1.24,3.33,1.24c1.55,0,2.66-0.38,3.33-1.13
		c0.67-0.74,1.01-1.62,1.01-2.62v-70.25c0-1.05,0.38-1.92,1.13-2.61c0.74-0.7,1.62-1.05,2.62-1.05h4.11c0.69,0,1.17,0.13,1.41,0.38
		c0.26,0.25,0.38,0.73,0.38,1.42V828.48z M972.33,783.65c0,0.95-0.57,1.42-1.72,1.42h-4.33c-0.75,0-1.53-0.22-2.35-0.67
		s-1.24-1.17-1.24-2.17V765.2c0-1.01-0.34-1.88-1.05-2.66c-0.69-0.77-1.8-1.16-3.29-1.16c-1.49,0-2.59,0.4-3.29,1.2
		c-0.69,0.8-1.05,1.67-1.05,2.62c0,4.58,0.45,8.54,1.35,11.88c0.89,3.34,2.03,6.39,3.4,9.16c1.36,2.76,2.84,5.45,4.41,8.06
		c1.57,2.62,3.04,5.5,4.41,8.64c1.36,3.14,2.5,6.75,3.4,10.84c0.89,4.09,1.34,8.99,1.34,14.72c0,1.7-0.32,3.28-0.97,4.76
		c-0.65,1.47-1.57,2.73-2.77,3.81c-1.2,1.07-2.67,1.91-4.41,2.5c-1.75,0.61-3.69,0.9-5.83,0.9c-2.19,0-4.15-0.3-5.87-0.9
		c-1.72-0.59-3.18-1.43-4.37-2.5c-1.2-1.08-2.1-2.34-2.72-3.81c-0.63-1.48-0.94-3.06-0.94-4.76V810.4c0-0.94,0.55-1.42,1.64-1.42
		h4.41c0.35,0,0.73,0.06,1.16,0.16c0.42,0.1,0.81,0.26,1.16,0.48c0.35,0.22,0.65,0.51,0.9,0.86c0.25,0.35,0.37,0.77,0.37,1.27v16.44
		c0,1,0.35,1.88,1.05,2.62c0.69,0.74,1.76,1.13,3.21,1.13c1.49,0,2.59-0.38,3.29-1.13c0.7-0.74,1.05-1.62,1.05-2.62
		c0-4.73-0.45-8.82-1.34-12.25c-0.9-3.44-2.03-6.59-3.4-9.46c-1.37-2.87-2.84-5.62-4.41-8.26c-1.56-2.63-3.04-5.51-4.41-8.64
		c-1.37-3.11-2.51-6.63-3.4-10.57c-0.9-3.94-1.35-8.65-1.35-14.13c0-1.69,0.33-3.27,0.97-4.75c0.65-1.47,1.56-2.74,2.76-3.81
		c1.2-1.07,2.66-1.91,4.37-2.51c1.72-0.6,3.62-0.89,5.71-0.89c2.15,0,4.09,0.3,5.83,0.89c1.74,0.6,3.24,1.44,4.49,2.51
		c1.24,1.07,2.19,2.34,2.84,3.81c0.65,1.48,0.97,3.06,0.97,4.75V783.65z M1006.36,836.86c0,1.44-0.72,2.16-2.16,2.16h-5.38
		c-1.4,0-2.1-0.73-2.1-2.16v-78.77c0-1.1,0.39-1.99,1.16-2.7c0.77-0.69,1.65-1.04,2.65-1.04h4.11c0.75,0,1.22,0.11,1.42,0.34
		c0.2,0.22,0.3,0.69,0.3,1.38V836.86z M1060.58,837.53c0.1,0.54,0.09,0.93-0.04,1.16c-0.13,0.22-0.56,0.34-1.31,0.34h-4.49
		c-1,0-1.94-0.27-2.83-0.82c-0.9-0.54-1.42-1.27-1.57-2.17l-6.58-35.79h-3.37v35.12c0,1.05-0.38,1.92-1.16,2.62
		c-0.77,0.7-1.65,1.05-2.65,1.05h-4.11c-0.7,0-1.16-0.12-1.38-0.38c-0.22-0.25-0.34-0.72-0.34-1.42v-81.08
		c0-0.69,0.12-1.16,0.34-1.42c0.22-0.25,0.68-0.37,1.38-0.37h4.11c1.14,0,2.07,0.34,2.76,1.01c0.7,0.67,1.05,1.48,1.05,2.43v34.45
		h3.37l6.58-34.9c0.15-0.89,0.67-1.61,1.57-2.17c0.89-0.54,1.84-0.81,2.83-0.81h4.49c0.75,0,1.18,0.11,1.31,0.34
		c0.13,0.22,0.14,0.61,0.04,1.16l-7.77,40.28L1060.58,837.53z M1206.87,801.62c0,0,0.01,0,0.02-0.01l1.26-0.2L1206.87,801.62z
		 M1496.32,749.5c0,0-0.07-0.01-0.09-0.01l-0.2,1.52c-25.35-3.04-101.58-12.03-196.82-21.76c0.31-0.25,0.61-0.5,0.93-0.76
		c-142.14-14.01-329.96-29.89-451.71-29.89c-128.23,0-312.48,16.18-448.49,30.24c0.22,0.19,0.45,0.38,0.68,0.56
		c-88.78,9.47-158.87,18.21-183.01,21.28l-30.63-234.99c0,0,416.67-62.96,665.94-62.96c280.32,0,673.92,60.48,673.92,60.48
		L1496.32,749.5z"/>
</g>
</svg>
